<svg xmlns="http://www.w3.org/2000/svg" viewBox="0 0 128.23 101.81"><defs><mask id="mask" x="13.57" y="27.6" width="72.25" height="64.48" maskUnits="userSpaceOnUse"><path class="cls-3" d="M54.29 28.71c-.84.96-1.49 1.15-2.54.77-1.05-.38-2.74-.9-4.81-.06-2.07.83-4.04 4.06-4.04 4.06s-.96-.16-2.11.07-1.47.97-1.47.97-.32-.2-1.69-.37c-1.37-.17-3.48.94-5.56 1.37-2.07.43-2.29-1.14-2.58-1.71-.29-.57-.58-.58-.84-.32-.26.26-2.63 3.04-4.39 4.07-1.76 1.04-2.85.8-4.09 2.02-1.25 1.22-2.27 4.27-3.09 6.47-.82 2.21-1.92 2.78-2.74 5.11-.82 2.33.32 2.79 1.46 4.44 1.14 1.64 2.34 6.04 3.38 8.97 1.03 2.92 1.73 6.62 3.14 8.37.84 1.05 1.7 1.2 2.73 1.39.69.13 1.44.28 2.31.73 2.16 1.14 4.12 3.89 4.85 5.52.73 1.64 1.33 3.84 2.85 4.53 1.52.7 1.5 1.67 2.91 2.9 1.41 1.23 2.92 1.55 3.56 1.28.64-.27-.08-1.27.21-3.47s5.7-7.75 8.52-9.35c2.81-1.6 4.42 1.01 4.76 2.45.33 1.45.82 2.49 2.03 2.57 1.21.08 1.41-.87 3.32.54 1.91 1.41 5 .83 6.72.05 1.72-.78 1.54-1.98 1.13-2.76-.41-.78.11-1.7.76-2.11.64-.42 1.71-.8 2.11-1.5.4-.7 2.19-2.68 3.02-3.34.83-.66 1.23-.62 1.43-1.35.21-.73.73-2.42 1.05-3.15.32-.73.84-1.49 1.57-1.58.74-.09 1.24-.02 1.54-.54.3-.52.75-2.08 2.4-2.09 1.65-.02 3.19-.81 3.67-2.48.48-1.66-1.52-3.18-2.71-4.23-1.19-1.06-3.85-2.49-5.82-3.32-.93-.39-1.72-.39-2.33-.34-.68.06-1.12.19-1.26-.09-.26-.53.48-.88 1.24-1.33.77-.46 1.81-1.7 1.97-2.44.16-.74-.52-.94-.9-1.68-.38-.75 0-1.72-.31-4.26-.32-2.53-2.23-4.21-4.21-5.53-1.16-.77-2.15-.88-3.16-.99-.72-.08-1.44-.16-2.25-.49-1.94-.78-2.51-2.71-2.92-3.65-.4-.94-.96-2.12-2.1-3.38-.64-.71-1.36-.82-2.09-.92-.56-.08-1.14-.17-1.68-.54a2.59 2.59 0 00-.71-.35c-.88-.25-1.56.28-2.23 1.04z" id="mask0_0_3592" data-name="mask0 0 3592"/></mask><mask id="mask-1" x="12.97" y="27.6" width="72.85" height="65.07" maskUnits="userSpaceOnUse"><path class="cls-3" d="M54.29 28.71c-.84.96-1.49 1.15-2.54.77-1.05-.38-2.74-.9-4.81-.06-2.07.83-4.04 4.06-4.04 4.06s-.96-.16-2.11.07-1.47.97-1.47.97-.32-.2-1.69-.37c-1.37-.17-3.48.94-5.56 1.37-2.07.43-2.29-1.14-2.58-1.71-.29-.57-.58-.58-.84-.32-.26.26-2.63 3.04-4.39 4.07-1.76 1.04-2.85.8-4.09 2.02-1.25 1.22-2.27 4.27-3.09 6.47-.82 2.21-1.92 2.78-2.74 5.11-.82 2.33.32 2.79 1.46 4.44 1.14 1.64 2.34 6.04 3.38 8.97 1.03 2.92 1.73 6.62 3.14 8.37.84 1.05 1.7 1.2 2.73 1.39.69.13 1.44.28 2.31.73 2.16 1.14 4.12 3.89 4.85 5.52.73 1.64 1.33 3.84 2.85 4.53 1.52.7 1.5 1.67 2.91 2.9 1.41 1.23 2.92 1.55 3.56 1.28.64-.27-.08-1.27.21-3.47s5.7-7.75 8.52-9.35c2.81-1.6 4.42 1.01 4.76 2.45.33 1.45.82 2.49 2.03 2.57 1.21.08 1.41-.87 3.32.54 1.91 1.41 5 .83 6.72.05 1.72-.78 1.54-1.98 1.13-2.76-.41-.78.11-1.7.76-2.11.64-.42 1.71-.8 2.11-1.5.4-.7 2.19-2.68 3.02-3.34.83-.66 1.23-.62 1.43-1.35.21-.73.73-2.42 1.05-3.15.32-.73.84-1.49 1.57-1.58.74-.09 1.24-.02 1.54-.54.3-.52.75-2.08 2.4-2.09 1.65-.02 3.19-.81 3.67-2.48.48-1.66-1.52-3.18-2.71-4.23-1.19-1.06-3.85-2.49-5.82-3.32-.93-.39-1.72-.39-2.33-.34-.68.06-1.12.19-1.26-.09-.26-.53.48-.88 1.24-1.33.77-.46 1.81-1.7 1.97-2.44.16-.74-.52-.94-.9-1.68-.38-.75 0-1.72-.31-4.26-.32-2.53-2.23-4.21-4.21-5.53-1.16-.77-2.15-.88-3.16-.99-.72-.08-1.44-.16-2.25-.49-1.94-.78-2.51-2.71-2.92-3.65-.4-.94-.96-2.12-2.1-3.38-.64-.71-1.36-.82-2.09-.92-.56-.08-1.14-.17-1.68-.54a2.59 2.59 0 00-.71-.35c-.88-.25-1.56.28-2.23 1.04z" id="mask1_0_3592" data-name="mask1 0 3592"/></mask><mask id="mask-2" x="14.06" y="27.6" width="71.76" height="70.99" maskUnits="userSpaceOnUse"><path class="cls-3" d="M54.29 28.71c-.84.96-1.49 1.15-2.54.77-1.05-.38-2.74-.9-4.81-.06-2.07.83-4.04 4.06-4.04 4.06s-.96-.16-2.11.07-1.47.97-1.47.97-.32-.2-1.69-.37c-1.37-.17-3.48.94-5.56 1.37-2.07.43-2.29-1.14-2.58-1.71-.29-.57-.58-.58-.84-.32-.26.26-2.63 3.04-4.39 4.07-1.76 1.04-2.85.8-4.09 2.02-1.25 1.22-2.27 4.27-3.09 6.47-.82 2.21-1.92 2.78-2.74 5.11-.82 2.33.32 2.79 1.46 4.44 1.14 1.64 2.34 6.04 3.38 8.97 1.03 2.92 1.73 6.62 3.14 8.37.84 1.05 1.7 1.2 2.73 1.39.69.13 1.44.28 2.31.73 2.16 1.14 4.12 3.89 4.85 5.52.73 1.64 1.33 3.84 2.85 4.53 1.52.7 1.5 1.67 2.91 2.9 1.41 1.23 2.92 1.55 3.56 1.28.64-.27-.08-1.27.21-3.47s5.7-7.75 8.52-9.35c2.81-1.6 4.42 1.01 4.76 2.45.33 1.45.82 2.49 2.03 2.57 1.21.08 1.41-.87 3.32.54 1.91 1.41 5 .83 6.72.05 1.72-.78 1.54-1.98 1.13-2.76-.41-.78.11-1.7.76-2.11.64-.42 1.71-.8 2.11-1.5.4-.7 2.19-2.68 3.02-3.34.83-.66 1.23-.62 1.43-1.35.21-.73.73-2.42 1.05-3.15.32-.73.84-1.49 1.57-1.58.74-.09 1.24-.02 1.54-.54.3-.52.75-2.08 2.4-2.09 1.65-.02 3.19-.81 3.67-2.48.48-1.66-1.52-3.18-2.71-4.23-1.19-1.06-3.85-2.49-5.82-3.32-.93-.39-1.72-.39-2.33-.34-.68.06-1.12.19-1.26-.09-.26-.53.48-.88 1.24-1.33.77-.46 1.81-1.7 1.97-2.44.16-.74-.52-.94-.9-1.68-.38-.75 0-1.72-.31-4.26-.32-2.53-2.23-4.21-4.21-5.53-1.16-.77-2.15-.88-3.16-.99-.72-.08-1.44-.16-2.25-.49-1.94-.78-2.51-2.71-2.92-3.65-.4-.94-.96-2.12-2.1-3.38-.64-.71-1.36-.82-2.09-.92-.56-.08-1.14-.17-1.68-.54a2.59 2.59 0 00-.71-.35c-.88-.25-1.56.28-2.23 1.04z" id="mask2_0_3592" data-name="mask2 0 3592"/></mask><mask id="mask-3" x="14.06" y="27.6" width="71.76" height="71.58" maskUnits="userSpaceOnUse"><path class="cls-3" d="M54.29 28.71c-.84.96-1.49 1.15-2.54.77-1.05-.38-2.74-.9-4.81-.06-2.07.83-4.04 4.06-4.04 4.06s-.96-.16-2.11.07-1.47.97-1.47.97-.32-.2-1.69-.37c-1.37-.17-3.48.94-5.56 1.37-2.07.43-2.29-1.14-2.58-1.71-.29-.57-.58-.58-.84-.32-.26.26-2.63 3.04-4.39 4.07-1.76 1.04-2.85.8-4.09 2.02-1.25 1.22-2.27 4.27-3.09 6.47-.82 2.21-1.92 2.78-2.74 5.11-.82 2.33.32 2.79 1.46 4.44 1.14 1.64 2.34 6.04 3.38 8.97 1.03 2.92 1.73 6.62 3.14 8.37.84 1.05 1.7 1.2 2.73 1.39.69.13 1.44.28 2.31.73 2.16 1.14 4.12 3.89 4.85 5.52.73 1.64 1.33 3.84 2.85 4.53 1.52.7 1.5 1.67 2.91 2.9 1.41 1.23 2.92 1.55 3.56 1.28.64-.27-.08-1.27.21-3.47s5.7-7.75 8.52-9.35c2.81-1.6 4.42 1.01 4.76 2.45.33 1.45.82 2.49 2.03 2.57 1.21.08 1.41-.87 3.32.54 1.91 1.41 5 .83 6.72.05 1.72-.78 1.54-1.98 1.13-2.76-.41-.78.11-1.7.76-2.11.64-.42 1.71-.8 2.11-1.5.4-.7 2.19-2.68 3.02-3.34.83-.66 1.23-.62 1.43-1.35.21-.73.73-2.42 1.05-3.15.32-.73.84-1.49 1.57-1.58.74-.09 1.24-.02 1.54-.54.3-.52.75-2.08 2.4-2.09 1.65-.02 3.19-.81 3.67-2.48.48-1.66-1.52-3.18-2.71-4.23-1.19-1.06-3.85-2.49-5.82-3.32-.93-.39-1.72-.39-2.33-.34-.68.06-1.12.19-1.26-.09-.26-.53.48-.88 1.24-1.33.77-.46 1.81-1.7 1.97-2.44.16-.74-.52-.94-.9-1.68-.38-.75 0-1.72-.31-4.26-.32-2.53-2.23-4.21-4.21-5.53-1.16-.77-2.15-.88-3.16-.99-.72-.08-1.44-.16-2.25-.49-1.94-.78-2.51-2.71-2.92-3.65-.4-.94-.96-2.12-2.1-3.38-.64-.71-1.36-.82-2.09-.92-.56-.08-1.14-.17-1.68-.54a2.59 2.59 0 00-.71-.35c-.88-.25-1.56.28-2.23 1.04z" id="mask3_0_3592" data-name="mask3 0 3592"/></mask><mask id="mask-4" x="14.06" y="27.6" width="71.76" height="73.62" maskUnits="userSpaceOnUse"><path class="cls-3" d="M54.29 28.71c-.84.96-1.49 1.15-2.54.77-1.05-.38-2.74-.9-4.81-.06-2.07.83-4.04 4.06-4.04 4.06s-.96-.16-2.11.07-1.47.97-1.47.97-.32-.2-1.69-.37c-1.37-.17-3.48.94-5.56 1.37-2.07.43-2.29-1.14-2.58-1.71-.29-.57-.58-.58-.84-.32-.26.26-2.63 3.04-4.39 4.07-1.76 1.04-2.85.8-4.09 2.02-1.25 1.22-2.27 4.27-3.09 6.47-.82 2.21-1.92 2.78-2.74 5.11-.82 2.33.32 2.79 1.46 4.44 1.14 1.64 2.34 6.04 3.38 8.97 1.03 2.92 1.73 6.62 3.14 8.37.84 1.05 1.7 1.2 2.73 1.39.69.13 1.44.28 2.31.73 2.16 1.14 4.12 3.89 4.85 5.52.73 1.64 1.33 3.84 2.85 4.53 1.52.7 1.5 1.67 2.91 2.9 1.41 1.23 2.92 1.55 3.56 1.28.64-.27-.08-1.27.21-3.47s5.7-7.75 8.52-9.35c2.81-1.6 4.42 1.01 4.76 2.45.33 1.45.82 2.49 2.03 2.57 1.21.08 1.41-.87 3.32.54 1.91 1.41 5 .83 6.72.05 1.72-.78 1.54-1.98 1.13-2.76-.41-.78.11-1.7.76-2.11.64-.42 1.71-.8 2.11-1.5.4-.7 2.19-2.68 3.02-3.34.83-.66 1.23-.62 1.43-1.35.21-.73.73-2.42 1.05-3.15.32-.73.84-1.49 1.57-1.58.74-.09 1.24-.02 1.54-.54.3-.52.75-2.08 2.4-2.09 1.65-.02 3.19-.81 3.67-2.48.48-1.66-1.52-3.18-2.71-4.23-1.19-1.06-3.85-2.49-5.82-3.32-.93-.39-1.72-.39-2.33-.34-.68.06-1.12.19-1.26-.09-.26-.53.48-.88 1.24-1.33.77-.46 1.81-1.7 1.97-2.44.16-.74-.52-.94-.9-1.68-.38-.75 0-1.72-.31-4.26-.32-2.53-2.23-4.21-4.21-5.53-1.16-.77-2.15-.88-3.16-.99-.72-.08-1.44-.16-2.25-.49-1.94-.78-2.51-2.71-2.92-3.65-.4-.94-.96-2.12-2.1-3.38-.64-.71-1.36-.82-2.09-.92-.56-.08-1.14-.17-1.68-.54a2.59 2.59 0 00-.71-.35c-.88-.25-1.56.28-2.23 1.04z" id="mask4_0_3592" data-name="mask4 0 3592"/></mask><mask id="mask-5" x="14.06" y="27.6" width="71.76" height="74.21" maskUnits="userSpaceOnUse"><path class="cls-3" d="M54.29 28.71c-.84.96-1.49 1.15-2.54.77-1.05-.38-2.74-.9-4.81-.06-2.07.83-4.04 4.06-4.04 4.06s-.96-.16-2.11.07-1.47.97-1.47.97-.32-.2-1.69-.37c-1.37-.17-3.48.94-5.56 1.37-2.07.43-2.29-1.14-2.58-1.71-.29-.57-.58-.58-.84-.32-.26.26-2.63 3.04-4.39 4.07-1.76 1.04-2.85.8-4.09 2.02-1.25 1.22-2.27 4.27-3.09 6.47-.82 2.21-1.92 2.78-2.74 5.11-.82 2.33.32 2.79 1.46 4.44 1.14 1.64 2.34 6.04 3.38 8.97 1.03 2.92 1.73 6.62 3.14 8.37.84 1.05 1.7 1.2 2.73 1.39.69.13 1.44.28 2.31.73 2.16 1.14 4.12 3.89 4.85 5.52.73 1.64 1.33 3.84 2.85 4.53 1.52.7 1.5 1.67 2.91 2.9 1.41 1.23 2.92 1.55 3.56 1.28.64-.27-.08-1.27.21-3.47s5.7-7.75 8.52-9.35c2.81-1.6 4.42 1.01 4.76 2.45.33 1.45.82 2.49 2.03 2.57 1.21.08 1.41-.87 3.32.54 1.91 1.41 5 .83 6.72.05 1.72-.78 1.54-1.98 1.13-2.76-.41-.78.11-1.7.76-2.11.64-.42 1.71-.8 2.11-1.5.4-.7 2.19-2.68 3.02-3.34.83-.66 1.23-.62 1.43-1.35.21-.73.73-2.42 1.05-3.15.32-.73.84-1.49 1.57-1.58.74-.09 1.24-.02 1.54-.54.3-.52.75-2.08 2.4-2.09 1.65-.02 3.19-.81 3.67-2.48.48-1.66-1.52-3.18-2.71-4.23-1.19-1.06-3.85-2.49-5.82-3.32-.93-.39-1.72-.39-2.33-.34-.68.06-1.12.19-1.26-.09-.26-.53.48-.88 1.24-1.33.77-.46 1.81-1.7 1.97-2.44.16-.74-.52-.94-.9-1.68-.38-.75 0-1.72-.31-4.26-.32-2.53-2.23-4.21-4.21-5.53-1.16-.77-2.15-.88-3.16-.99-.72-.08-1.44-.16-2.25-.49-1.94-.78-2.51-2.71-2.92-3.65-.4-.94-.96-2.12-2.1-3.38-.64-.71-1.36-.82-2.09-.92-.56-.08-1.14-.17-1.68-.54a2.59 2.59 0 00-.71-.35c-.88-.25-1.56.28-2.23 1.04z" id="mask5_0_3592" data-name="mask5 0 3592"/></mask><mask id="mask-6" x="14.06" y="27.6" width="71.76" height="71.58" maskUnits="userSpaceOnUse"><path class="cls-3" d="M54.29 28.71c-.84.96-1.49 1.15-2.54.77-1.05-.38-2.74-.9-4.81-.06-2.07.83-4.04 4.06-4.04 4.06s-.96-.16-2.11.07-1.47.97-1.47.97-.32-.2-1.69-.37c-1.37-.17-3.48.94-5.56 1.37-2.07.43-2.29-1.14-2.58-1.71-.29-.57-.58-.58-.84-.32-.26.26-2.63 3.04-4.39 4.07-1.76 1.04-2.85.8-4.09 2.02-1.25 1.22-2.27 4.27-3.09 6.47-.82 2.21-1.92 2.78-2.74 5.11-.82 2.33.32 2.79 1.46 4.44 1.14 1.64 2.34 6.04 3.38 8.97 1.03 2.92 1.73 6.62 3.14 8.37.84 1.05 1.7 1.2 2.73 1.39.69.13 1.44.28 2.31.73 2.16 1.14 4.12 3.89 4.85 5.52.73 1.64 1.33 3.84 2.85 4.53 1.52.7 1.5 1.67 2.91 2.9 1.41 1.23 2.92 1.55 3.56 1.28.64-.27-.08-1.27.21-3.47s5.7-7.75 8.52-9.35c2.81-1.6 4.42 1.01 4.76 2.45.33 1.45.82 2.49 2.03 2.57 1.21.08 1.41-.87 3.32.54 1.91 1.41 5 .83 6.72.05 1.72-.78 1.54-1.98 1.13-2.76-.41-.78.11-1.7.76-2.11.64-.42 1.71-.8 2.11-1.5.4-.7 2.19-2.68 3.02-3.34.83-.66 1.23-.62 1.43-1.35.21-.73.73-2.42 1.05-3.15.32-.73.84-1.49 1.57-1.58.74-.09 1.24-.02 1.54-.54.3-.52.75-2.08 2.4-2.09 1.65-.02 3.19-.81 3.67-2.48.48-1.66-1.52-3.18-2.71-4.23-1.19-1.06-3.85-2.49-5.82-3.32-.93-.39-1.72-.39-2.33-.34-.68.06-1.12.19-1.26-.09-.26-.53.48-.88 1.24-1.33.77-.46 1.81-1.7 1.97-2.44.16-.74-.52-.94-.9-1.68-.38-.75 0-1.72-.31-4.26-.32-2.53-2.23-4.21-4.21-5.53-1.16-.77-2.15-.88-3.16-.99-.72-.08-1.44-.16-2.25-.49-1.94-.78-2.51-2.71-2.92-3.65-.4-.94-.96-2.12-2.1-3.38-.64-.71-1.36-.82-2.09-.92-.56-.08-1.14-.17-1.68-.54a2.59 2.59 0 00-.71-.35c-.88-.25-1.56.28-2.23 1.04z" id="mask6_0_3592" data-name="mask6 0 3592"/></mask><mask id="mask-7" x="14.06" y="8.31" width="71.76" height="81.06" maskUnits="userSpaceOnUse"><path class="cls-3" d="M54.29 28.71c-.84.96-1.49 1.15-2.54.77-1.05-.38-2.74-.9-4.81-.06-2.07.83-4.04 4.06-4.04 4.06s-.96-.16-2.11.07-1.47.97-1.47.97-.32-.2-1.69-.37c-1.37-.17-3.48.94-5.56 1.37-2.07.43-2.29-1.14-2.58-1.71-.29-.57-.58-.58-.84-.32-.26.26-2.63 3.04-4.39 4.07-1.76 1.04-2.85.8-4.09 2.02-1.25 1.22-2.27 4.27-3.09 6.47-.82 2.21-1.92 2.78-2.74 5.11-.82 2.33.32 2.79 1.46 4.44 1.14 1.64 2.34 6.04 3.38 8.97 1.03 2.92 1.73 6.62 3.14 8.37.84 1.05 1.7 1.2 2.73 1.39.69.13 1.44.28 2.31.73 2.16 1.14 4.12 3.89 4.85 5.52.73 1.64 1.33 3.84 2.85 4.53 1.52.7 1.5 1.67 2.91 2.9 1.41 1.23 2.92 1.55 3.56 1.28.64-.27-.08-1.27.21-3.47s5.7-7.75 8.52-9.35c2.81-1.6 4.42 1.01 4.76 2.45.33 1.45.82 2.49 2.03 2.57 1.21.08 1.41-.87 3.32.54 1.91 1.41 5 .83 6.72.05 1.72-.78 1.54-1.98 1.13-2.76-.41-.78.11-1.7.76-2.11.64-.42 1.71-.8 2.11-1.5.4-.7 2.19-2.68 3.02-3.34.83-.66 1.23-.62 1.43-1.35.21-.73.73-2.42 1.05-3.15.32-.73.84-1.49 1.57-1.58.74-.09 1.24-.02 1.54-.54.3-.52.75-2.08 2.4-2.09 1.65-.02 3.19-.81 3.67-2.48.48-1.66-1.52-3.18-2.71-4.23-1.19-1.06-3.85-2.49-5.82-3.32-.93-.39-1.72-.39-2.33-.34-.68.06-1.12.19-1.26-.09-.26-.53.48-.88 1.24-1.33.77-.46 1.81-1.7 1.97-2.44.16-.74-.52-.94-.9-1.68-.38-.75 0-1.72-.31-4.26-.32-2.53-2.23-4.21-4.21-5.53-1.16-.77-2.15-.88-3.16-.99-.72-.08-1.44-.16-2.25-.49-1.94-.78-2.51-2.71-2.92-3.65-.4-.94-.96-2.12-2.1-3.38-.64-.71-1.36-.82-2.09-.92-.56-.08-1.14-.17-1.68-.54a2.59 2.59 0 00-.71-.35c-.88-.25-1.56.28-2.23 1.04z" id="mask7_0_3592" data-name="mask7 0 3592"/></mask><mask id="mask-8" x="14.06" y="7.72" width="71.76" height="81.65" maskUnits="userSpaceOnUse"><path class="cls-3" d="M54.29 28.71c-.84.96-1.49 1.15-2.54.77-1.05-.38-2.74-.9-4.81-.06-2.07.83-4.04 4.06-4.04 4.06s-.96-.16-2.11.07-1.47.97-1.47.97-.32-.2-1.69-.37c-1.37-.17-3.48.94-5.56 1.37-2.07.43-2.29-1.14-2.58-1.71-.29-.57-.58-.58-.84-.32-.26.26-2.63 3.04-4.39 4.07-1.76 1.04-2.85.8-4.09 2.02-1.25 1.22-2.27 4.27-3.09 6.47-.82 2.21-1.92 2.78-2.74 5.11-.82 2.33.32 2.79 1.46 4.44 1.14 1.64 2.34 6.04 3.38 8.97 1.03 2.92 1.73 6.62 3.14 8.37.84 1.05 1.7 1.2 2.73 1.39.69.13 1.44.28 2.31.73 2.16 1.14 4.12 3.89 4.85 5.52.73 1.64 1.33 3.84 2.85 4.53 1.52.7 1.5 1.67 2.91 2.9 1.41 1.23 2.92 1.55 3.56 1.28.64-.27-.08-1.27.21-3.47s5.7-7.75 8.52-9.35c2.81-1.6 4.42 1.01 4.76 2.45.33 1.45.82 2.49 2.03 2.57 1.21.08 1.41-.87 3.32.54 1.91 1.41 5 .83 6.72.05 1.72-.78 1.54-1.98 1.13-2.76-.41-.78.11-1.7.76-2.11.64-.42 1.71-.8 2.11-1.5.4-.7 2.19-2.68 3.02-3.34.83-.66 1.23-.62 1.43-1.35.21-.73.73-2.42 1.05-3.15.32-.73.84-1.49 1.57-1.58.74-.09 1.24-.02 1.54-.54.3-.52.75-2.08 2.4-2.09 1.65-.02 3.19-.81 3.67-2.48.48-1.66-1.52-3.18-2.71-4.23-1.19-1.06-3.85-2.49-5.82-3.32-.93-.39-1.72-.39-2.33-.34-.68.06-1.12.19-1.26-.09-.26-.53.48-.88 1.24-1.33.77-.46 1.81-1.7 1.97-2.44.16-.74-.52-.94-.9-1.68-.38-.75 0-1.72-.31-4.26-.32-2.53-2.23-4.21-4.21-5.53-1.16-.77-2.15-.88-3.16-.99-.72-.08-1.44-.16-2.25-.49-1.94-.78-2.51-2.71-2.92-3.65-.4-.94-.96-2.12-2.1-3.38-.64-.71-1.36-.82-2.09-.92-.56-.08-1.14-.17-1.68-.54a2.59 2.59 0 00-.71-.35c-.88-.25-1.56.28-2.23 1.04z" id="mask8_0_3592" data-name="mask8 0 3592"/></mask><mask id="mask-9" x="26.2" y="27.6" width="49.4" height="37.4" maskUnits="userSpaceOnUse"><path class="cls-3" d="M54.29 28.71c-.84.96-1.49 1.15-2.54.77-1.05-.38-2.74-.9-4.81-.06-2.07.83-4.04 4.06-4.04 4.06s-.96-.16-2.11.07-1.47.97-1.47.97-.32-.2-1.69-.37c-1.37-.17-3.48.94-5.56 1.37-2.07.43-2.29-1.14-2.58-1.71-.29-.57-.58-.58-.84-.32-.17.17-1.24 1.41-2.44 2.54.58 10.55 7.71 20.05 18.41 23.12 12.95 3.71 26.45-3.34 30.99-15.86-.4-2.41-2.26-4.02-4.18-5.3-1.16-.77-2.15-.88-3.16-.99-.72-.08-1.44-.16-2.25-.49-1.94-.78-2.51-2.71-2.92-3.65-.4-.94-.96-2.12-2.1-3.38-.64-.71-1.36-.82-2.09-.92-.56-.08-1.14-.17-1.68-.54a2.4 2.4 0 00-.71-.34c-.88-.25-1.56.27-2.23 1.04z" id="mask9_0_3592" data-name="mask9 0 3592"/></mask><mask id="mask-10" x="26.2" y="27.6" width="49.4" height="37.99" maskUnits="userSpaceOnUse"><path class="cls-3" d="M54.29 28.71c-.84.96-1.49 1.15-2.54.77-1.05-.38-2.74-.9-4.81-.06-2.07.83-4.04 4.06-4.04 4.06s-.96-.16-2.11.07-1.47.97-1.47.97-.32-.2-1.69-.37c-1.37-.17-3.48.94-5.56 1.37-2.07.43-2.29-1.14-2.58-1.71-.29-.57-.58-.58-.84-.32-.17.17-1.24 1.41-2.44 2.54.58 10.55 7.71 20.05 18.41 23.12 12.95 3.71 26.45-3.34 30.99-15.86-.4-2.41-2.26-4.02-4.18-5.3-1.16-.77-2.15-.88-3.16-.99-.72-.08-1.44-.16-2.25-.49-1.94-.78-2.51-2.71-2.92-3.65-.4-.94-.96-2.12-2.1-3.38-.64-.71-1.36-.82-2.09-.92-.56-.08-1.14-.17-1.68-.54a2.4 2.4 0 00-.71-.34c-.88-.25-1.56.27-2.23 1.04z" id="mask10_0_3592" data-name="mask10 0 3592"/></mask><mask id="mask-11" x="14.06" y="27.6" width="71.76" height="61.78" maskUnits="userSpaceOnUse"><path class="cls-3" d="M54.29 28.71c-.84.96-1.49 1.15-2.54.77-1.05-.38-2.74-.9-4.81-.06-2.07.83-4.04 4.06-4.04 4.06s-.96-.16-2.11.07-1.47.97-1.47.97-.32-.2-1.69-.37c-1.37-.17-3.48.94-5.56 1.37-2.07.43-2.29-1.14-2.58-1.71-.29-.57-.58-.58-.84-.32-.26.26-2.63 3.04-4.39 4.07-1.76 1.04-2.85.8-4.09 2.02-1.25 1.22-2.27 4.27-3.09 6.47-.82 2.21-1.92 2.78-2.74 5.11-.82 2.33.32 2.79 1.46 4.44 1.14 1.64 2.34 6.04 3.38 8.97 1.03 2.92 1.73 6.62 3.14 8.37.84 1.05 1.7 1.2 2.73 1.39.69.13 1.44.28 2.31.73 2.16 1.14 4.12 3.89 4.85 5.52.73 1.64 1.33 3.84 2.85 4.53 1.52.7 1.5 1.67 2.91 2.9 1.41 1.23 2.92 1.55 3.56 1.28.64-.27-.08-1.27.21-3.47s5.7-7.75 8.52-9.35c2.81-1.6 4.42 1.01 4.76 2.45.33 1.45.82 2.49 2.03 2.57 1.21.08 1.41-.87 3.32.54 1.91 1.41 5 .83 6.72.05 1.72-.78 1.54-1.98 1.13-2.76-.41-.78.11-1.7.76-2.11.64-.42 1.71-.8 2.11-1.5.4-.7 2.19-2.68 3.02-3.34.83-.66 1.23-.62 1.43-1.35.21-.73.73-2.42 1.05-3.15.32-.73.84-1.49 1.57-1.58.74-.09 1.24-.02 1.54-.54.3-.52.75-2.08 2.4-2.09 1.65-.02 3.19-.81 3.67-2.48.48-1.66-1.52-3.18-2.71-4.23-1.19-1.06-3.85-2.49-5.82-3.32-.93-.39-1.72-.39-2.33-.34-.68.06-1.12.19-1.26-.09-.26-.53.48-.88 1.24-1.33.77-.46 1.81-1.7 1.97-2.44.16-.74-.52-.94-.9-1.68-.38-.75 0-1.72-.31-4.26-.32-2.53-2.23-4.21-4.21-5.53-1.16-.77-2.15-.88-3.16-.99-.72-.08-1.44-.16-2.25-.49-1.94-.78-2.51-2.71-2.92-3.65-.4-.94-.96-2.12-2.1-3.38-.64-.71-1.36-.82-2.09-.92-.56-.08-1.14-.17-1.68-.54a2.59 2.59 0 00-.71-.35c-.88-.25-1.56.28-2.23 1.04z" id="mask11_0_3592" data-name="mask11 0 3592"/></mask><mask id="mask-12" x="14.06" y="27.6" width="71.76" height="61.78" maskUnits="userSpaceOnUse"><path class="cls-3" d="M54.29 28.71c-.84.96-1.49 1.15-2.54.77-1.05-.38-2.74-.9-4.81-.06-2.07.83-4.04 4.06-4.04 4.06s-.96-.16-2.11.07-1.47.97-1.47.97-.32-.2-1.69-.37c-1.37-.17-3.48.94-5.56 1.37-2.07.43-2.29-1.14-2.58-1.71-.29-.57-.58-.58-.84-.32-.26.26-2.63 3.04-4.39 4.07-1.76 1.04-2.85.8-4.09 2.02-1.25 1.22-2.27 4.27-3.09 6.47-.82 2.21-1.92 2.78-2.74 5.11-.82 2.33.32 2.79 1.46 4.44 1.14 1.64 2.34 6.04 3.38 8.97 1.03 2.92 1.73 6.62 3.14 8.37.84 1.05 1.7 1.2 2.73 1.39.69.13 1.44.28 2.31.73 2.16 1.14 4.12 3.89 4.85 5.52.73 1.64 1.33 3.84 2.85 4.53 1.52.7 1.5 1.67 2.91 2.9 1.41 1.23 2.92 1.55 3.56 1.28.64-.27-.08-1.27.21-3.47s5.7-7.75 8.52-9.35c2.81-1.6 4.42 1.01 4.76 2.45.33 1.45.82 2.49 2.03 2.57 1.21.08 1.41-.87 3.32.54 1.91 1.41 5 .83 6.72.05 1.72-.78 1.54-1.98 1.13-2.76-.41-.78.11-1.7.76-2.11.64-.42 1.71-.8 2.11-1.5.4-.7 2.19-2.68 3.02-3.34.83-.66 1.23-.62 1.43-1.35.21-.73.73-2.42 1.05-3.15.32-.73.84-1.49 1.57-1.58.74-.09 1.24-.02 1.54-.54.3-.52.75-2.08 2.4-2.09 1.65-.02 3.19-.81 3.67-2.48.48-1.66-1.52-3.18-2.71-4.23-1.19-1.06-3.85-2.49-5.82-3.32-.93-.39-1.72-.39-2.33-.34-.68.06-1.12.19-1.26-.09-.26-.53.48-.88 1.24-1.33.77-.46 1.81-1.7 1.97-2.44.16-.74-.52-.94-.9-1.68-.38-.75 0-1.72-.31-4.26-.32-2.53-2.23-4.21-4.21-5.53-1.16-.77-2.15-.88-3.16-.99-.72-.08-1.44-.16-2.25-.49-1.94-.78-2.51-2.71-2.92-3.65-.4-.94-.96-2.12-2.1-3.38-.64-.71-1.36-.82-2.09-.92-.56-.08-1.14-.17-1.68-.54a2.59 2.59 0 00-.71-.35c-.88-.25-1.56.28-2.23 1.04z" id="mask12_0_3592" data-name="mask12 0 3592"/></mask><mask id="mask-13" x="14.06" y=".59" width="73.15" height="88.78" maskUnits="userSpaceOnUse"><path class="cls-3" d="M54.29 28.71c-.84.96-1.49 1.15-2.54.77-1.05-.38-2.74-.9-4.81-.06-2.07.83-4.04 4.06-4.04 4.06s-.96-.16-2.11.07-1.47.97-1.47.97-.32-.2-1.69-.37c-1.37-.17-3.48.94-5.56 1.37-2.07.43-2.29-1.14-2.58-1.71-.29-.57-.58-.58-.84-.32-.26.26-2.63 3.04-4.39 4.07-1.76 1.04-2.85.8-4.09 2.02-1.25 1.22-2.27 4.27-3.09 6.47-.82 2.21-1.92 2.78-2.74 5.11-.82 2.33.32 2.79 1.46 4.44 1.14 1.64 2.34 6.04 3.38 8.97 1.03 2.92 1.73 6.62 3.14 8.37.84 1.05 1.7 1.2 2.73 1.39.69.13 1.44.28 2.31.73 2.16 1.14 4.12 3.89 4.85 5.52.73 1.64 1.33 3.84 2.85 4.53 1.52.7 1.5 1.67 2.91 2.9 1.41 1.23 2.92 1.55 3.56 1.28.64-.27-.08-1.27.21-3.47s5.7-7.75 8.52-9.35c2.81-1.6 4.42 1.01 4.76 2.45.33 1.45.82 2.49 2.03 2.57 1.21.08 1.41-.87 3.32.54 1.91 1.41 5 .83 6.72.05 1.72-.78 1.54-1.98 1.13-2.76-.41-.78.11-1.7.76-2.11.64-.42 1.71-.8 2.11-1.5.4-.7 2.19-2.68 3.02-3.34.83-.66 1.23-.62 1.43-1.35.21-.73.73-2.42 1.05-3.15.32-.73.84-1.49 1.57-1.58.74-.09 1.24-.02 1.54-.54.3-.52.75-2.08 2.4-2.09 1.65-.02 3.19-.81 3.67-2.48.48-1.66-1.52-3.18-2.71-4.23-1.19-1.06-3.85-2.49-5.82-3.32-.93-.39-1.72-.39-2.33-.34-.68.06-1.12.19-1.26-.09-.26-.53.48-.88 1.24-1.33.77-.46 1.81-1.7 1.97-2.44.16-.74-.52-.94-.9-1.68-.38-.75 0-1.72-.31-4.26-.32-2.53-2.23-4.21-4.21-5.53-1.16-.77-2.15-.88-3.16-.99-.72-.08-1.44-.16-2.25-.49-1.94-.78-2.51-2.71-2.92-3.65-.4-.94-.96-2.12-2.1-3.38-.64-.71-1.36-.82-2.09-.92-.56-.08-1.14-.17-1.68-.54a2.59 2.59 0 00-.71-.35c-.88-.25-1.56.28-2.23 1.04z" id="mask13_0_3592" data-name="mask13 0 3592"/></mask><mask id="mask-14" x="14.06" width="73.74" height="89.38" maskUnits="userSpaceOnUse"><path class="cls-3" d="M54.29 28.71c-.84.96-1.49 1.15-2.54.77-1.05-.38-2.74-.9-4.81-.06-2.07.83-4.04 4.06-4.04 4.06s-.96-.16-2.11.07-1.47.97-1.47.97-.32-.2-1.69-.37c-1.37-.17-3.48.94-5.56 1.37-2.07.43-2.29-1.14-2.58-1.71-.29-.57-.58-.58-.84-.32-.26.26-2.63 3.04-4.39 4.07-1.76 1.04-2.85.8-4.09 2.02-1.25 1.22-2.27 4.27-3.09 6.47-.82 2.21-1.92 2.78-2.74 5.11-.82 2.33.32 2.79 1.46 4.44 1.14 1.64 2.34 6.04 3.38 8.97 1.03 2.92 1.73 6.62 3.14 8.37.84 1.05 1.7 1.2 2.73 1.39.69.13 1.44.28 2.31.73 2.16 1.14 4.12 3.89 4.85 5.52.73 1.64 1.33 3.84 2.85 4.53 1.52.7 1.5 1.67 2.91 2.9 1.41 1.23 2.92 1.55 3.56 1.28.64-.27-.08-1.27.21-3.47s5.7-7.75 8.52-9.35c2.81-1.6 4.42 1.01 4.76 2.45.33 1.45.82 2.49 2.03 2.57 1.21.08 1.41-.87 3.32.54 1.91 1.41 5 .83 6.72.05 1.72-.78 1.54-1.98 1.13-2.76-.41-.78.11-1.7.76-2.11.64-.42 1.71-.8 2.11-1.5.4-.7 2.19-2.68 3.02-3.34.83-.66 1.23-.62 1.43-1.35.21-.73.73-2.42 1.05-3.15.32-.73.84-1.49 1.57-1.58.74-.09 1.24-.02 1.54-.54.3-.52.75-2.08 2.4-2.09 1.65-.02 3.19-.81 3.67-2.48.48-1.66-1.52-3.18-2.71-4.23-1.19-1.06-3.85-2.49-5.82-3.32-.93-.39-1.72-.39-2.33-.34-.68.06-1.12.19-1.26-.09-.26-.53.48-.88 1.24-1.33.77-.46 1.81-1.7 1.97-2.44.16-.74-.52-.94-.9-1.68-.38-.75 0-1.72-.31-4.26-.32-2.53-2.23-4.21-4.21-5.53-1.16-.77-2.15-.88-3.16-.99-.72-.08-1.44-.16-2.25-.49-1.94-.78-2.51-2.71-2.92-3.65-.4-.94-.96-2.12-2.1-3.38-.64-.71-1.36-.82-2.09-.92-.56-.08-1.14-.17-1.68-.54a2.59 2.59 0 00-.71-.35c-.88-.25-1.56.28-2.23 1.04z" id="mask14_0_3592" data-name="mask14 0 3592"/></mask><mask id="mask-15" x="14.06" y="27.6" width="85.78" height="61.78" maskUnits="userSpaceOnUse"><path class="cls-3" d="M54.29 28.71c-.84.96-1.49 1.15-2.54.77-1.05-.38-2.74-.9-4.81-.06-2.07.83-4.04 4.06-4.04 4.06s-.96-.16-2.11.07-1.47.97-1.47.97-.32-.2-1.69-.37c-1.37-.17-3.48.94-5.56 1.37-2.07.43-2.29-1.14-2.58-1.71-.29-.57-.58-.58-.84-.32-.26.26-2.63 3.04-4.39 4.07-1.76 1.04-2.85.8-4.09 2.02-1.25 1.22-2.27 4.27-3.09 6.47-.82 2.21-1.92 2.78-2.74 5.11-.82 2.33.32 2.79 1.46 4.44 1.14 1.64 2.34 6.04 3.38 8.97 1.03 2.92 1.73 6.62 3.14 8.37.84 1.05 1.7 1.2 2.73 1.39.69.13 1.44.28 2.31.73 2.16 1.14 4.12 3.89 4.85 5.52.73 1.64 1.33 3.84 2.85 4.53 1.52.7 1.5 1.67 2.91 2.9 1.41 1.23 2.92 1.55 3.56 1.28.64-.27-.08-1.27.21-3.47s5.7-7.75 8.52-9.35c2.81-1.6 4.42 1.01 4.76 2.45.33 1.45.82 2.49 2.03 2.57 1.21.08 1.41-.87 3.32.54 1.91 1.41 5 .83 6.72.05 1.72-.78 1.54-1.98 1.13-2.76-.41-.78.11-1.7.76-2.11.64-.42 1.71-.8 2.11-1.5.4-.7 2.19-2.68 3.02-3.34.83-.66 1.23-.62 1.43-1.35.21-.73.73-2.42 1.05-3.15.32-.73.84-1.49 1.57-1.58.74-.09 1.24-.02 1.54-.54.3-.52.75-2.08 2.4-2.09 1.65-.02 3.19-.81 3.67-2.48.48-1.66-1.52-3.18-2.71-4.23-1.19-1.06-3.85-2.49-5.82-3.32-.93-.39-1.72-.39-2.33-.34-.68.06-1.12.19-1.26-.09-.26-.53.48-.88 1.24-1.33.77-.46 1.81-1.7 1.97-2.44.16-.74-.52-.94-.9-1.68-.38-.75 0-1.72-.31-4.26-.32-2.53-2.23-4.21-4.21-5.53-1.16-.77-2.15-.88-3.16-.99-.72-.08-1.44-.16-2.25-.49-1.94-.78-2.51-2.71-2.92-3.65-.4-.94-.96-2.12-2.1-3.38-.64-.71-1.36-.82-2.09-.92-.56-.08-1.14-.17-1.68-.54a2.59 2.59 0 00-.71-.35c-.88-.25-1.56.28-2.23 1.04z" id="mask15_0_3592" data-name="mask15 0 3592"/></mask><mask id="mask-16" x="14.06" y="27.6" width="86.38" height="61.78" maskUnits="userSpaceOnUse"><path class="cls-3" d="M54.29 28.71c-.84.96-1.49 1.15-2.54.77-1.05-.38-2.74-.9-4.81-.06-2.07.83-4.04 4.06-4.04 4.06s-.96-.16-2.11.07-1.47.97-1.47.97-.32-.2-1.69-.37c-1.37-.17-3.48.94-5.56 1.37-2.07.43-2.29-1.14-2.58-1.71-.29-.57-.58-.58-.84-.32-.26.26-2.63 3.04-4.39 4.07-1.76 1.04-2.85.8-4.09 2.02-1.25 1.22-2.27 4.27-3.09 6.47-.82 2.21-1.92 2.78-2.74 5.11-.82 2.33.32 2.79 1.46 4.44 1.14 1.64 2.34 6.04 3.38 8.97 1.03 2.92 1.73 6.62 3.14 8.37.84 1.05 1.7 1.2 2.73 1.39.69.13 1.44.28 2.31.73 2.16 1.14 4.12 3.89 4.85 5.52.73 1.64 1.33 3.84 2.85 4.53 1.52.7 1.5 1.67 2.91 2.9 1.41 1.23 2.92 1.55 3.56 1.28.64-.27-.08-1.27.21-3.47s5.7-7.75 8.52-9.35c2.81-1.6 4.42 1.01 4.76 2.45.33 1.45.82 2.49 2.03 2.57 1.21.08 1.41-.87 3.32.54 1.91 1.41 5 .83 6.72.05 1.72-.78 1.54-1.98 1.13-2.76-.41-.78.11-1.7.76-2.11.64-.42 1.71-.8 2.11-1.5.4-.7 2.19-2.68 3.02-3.34.83-.66 1.23-.62 1.43-1.35.21-.73.73-2.42 1.05-3.15.32-.73.84-1.49 1.57-1.58.74-.09 1.24-.02 1.54-.54.3-.52.75-2.08 2.4-2.09 1.65-.02 3.19-.81 3.67-2.48.48-1.66-1.52-3.18-2.71-4.23-1.19-1.06-3.85-2.49-5.82-3.32-.93-.39-1.72-.39-2.33-.34-.68.06-1.12.19-1.26-.09-.26-.53.48-.88 1.24-1.33.77-.46 1.81-1.7 1.97-2.44.16-.74-.52-.94-.9-1.68-.38-.75 0-1.72-.31-4.26-.32-2.53-2.23-4.21-4.21-5.53-1.16-.77-2.15-.88-3.16-.99-.72-.08-1.44-.16-2.25-.49-1.94-.78-2.51-2.71-2.92-3.65-.4-.94-.96-2.12-2.1-3.38-.64-.71-1.36-.82-2.09-.92-.56-.08-1.14-.17-1.68-.54a2.59 2.59 0 00-.71-.35c-.88-.25-1.56.28-2.23 1.04z" id="mask16_0_3592" data-name="mask16 0 3592"/></mask><mask id="mask-17" x="50.88" y="31.29" width="34.94" height="45.71" maskUnits="userSpaceOnUse"><path class="cls-3" d="M57.29 51.33c-3.02 10.52 2.31 21.44 12.05 25.66.62-.34 1.4-.7 1.73-1.27.4-.7 2.19-2.68 3.02-3.34.83-.66 1.23-.62 1.43-1.35.21-.73.73-2.42 1.05-3.15.32-.73.84-1.49 1.57-1.58.74-.09 1.24-.02 1.54-.54s.75-2.08 2.4-2.09c1.65-.02 3.19-.81 3.67-2.48.48-1.66-1.52-3.18-2.71-4.23-1.19-1.06-3.85-2.49-5.82-3.32-.93-.39-1.72-.39-2.33-.34-.68.06-1.12.19-1.26-.09-.26-.53.48-.88 1.24-1.33.77-.46 1.81-1.7 1.97-2.44.16-.74-.52-.94-.9-1.69s0-1.72-.31-4.26c-.32-2.53-2.23-4.21-4.21-5.53-.52-.35-1.01-.56-1.48-.7-5.93 2.4-10.75 7.41-12.65 14.06z" id="mask17_0_3592" data-name="mask17 0 3592"/></mask><mask id="mask-18" x="50.29" y="30.69" width="35.53" height="46.3" maskUnits="userSpaceOnUse"><path class="cls-3" d="M57.29 51.33c-3.02 10.52 2.31 21.44 12.05 25.66.62-.34 1.4-.7 1.73-1.27.4-.7 2.19-2.68 3.02-3.34.83-.66 1.23-.62 1.43-1.35.21-.73.73-2.42 1.05-3.15.32-.73.84-1.49 1.57-1.58.74-.09 1.24-.02 1.54-.54s.75-2.08 2.4-2.09c1.65-.02 3.19-.81 3.67-2.48.48-1.66-1.52-3.18-2.71-4.23-1.19-1.06-3.85-2.49-5.82-3.32-.93-.39-1.72-.39-2.33-.34-.68.06-1.12.19-1.26-.09-.26-.53.48-.88 1.24-1.33.77-.46 1.81-1.7 1.97-2.44.16-.74-.52-.94-.9-1.69s0-1.72-.31-4.26c-.32-2.53-2.23-4.21-4.21-5.53-.52-.35-1.01-.56-1.48-.7-5.93 2.4-10.75 7.41-12.65 14.06z" id="mask18_0_3592" data-name="mask18 0 3592"/></mask><mask id="mask-19" x="14.06" y="27.6" width="74.29" height="61.78" maskUnits="userSpaceOnUse"><path class="cls-3" d="M54.29 28.71c-.84.96-1.49 1.15-2.54.77-1.05-.38-2.74-.9-4.81-.06-2.07.83-4.04 4.06-4.04 4.06s-.96-.16-2.11.07-1.47.97-1.47.97-.32-.2-1.69-.37c-1.37-.17-3.48.94-5.56 1.37-2.07.43-2.29-1.14-2.58-1.71-.29-.57-.58-.58-.84-.32-.26.26-2.63 3.04-4.39 4.07-1.76 1.04-2.85.8-4.09 2.02-1.25 1.22-2.27 4.27-3.09 6.47-.82 2.21-1.92 2.78-2.74 5.11-.82 2.33.32 2.79 1.46 4.44 1.14 1.64 2.34 6.04 3.38 8.97 1.03 2.92 1.73 6.62 3.14 8.37.84 1.05 1.7 1.2 2.73 1.39.69.13 1.44.28 2.31.73 2.16 1.14 4.12 3.89 4.85 5.52.73 1.64 1.33 3.84 2.85 4.53 1.52.7 1.5 1.67 2.91 2.9 1.41 1.23 2.92 1.55 3.56 1.28.64-.27-.08-1.27.21-3.47s5.7-7.75 8.52-9.35c2.81-1.6 4.42 1.01 4.76 2.45.33 1.45.82 2.49 2.03 2.57 1.21.08 1.41-.87 3.32.54 1.91 1.41 5 .83 6.72.05 1.72-.78 1.54-1.98 1.13-2.76-.41-.78.11-1.7.76-2.11.64-.42 1.71-.8 2.11-1.5.4-.7 2.19-2.68 3.02-3.34.83-.66 1.23-.62 1.43-1.35.21-.73.73-2.42 1.05-3.15.32-.73.84-1.49 1.57-1.58.74-.09 1.24-.02 1.54-.54.3-.52.75-2.08 2.4-2.09 1.65-.02 3.19-.81 3.67-2.48.48-1.66-1.52-3.18-2.71-4.23-1.19-1.06-3.85-2.49-5.82-3.32-.93-.39-1.72-.39-2.33-.34-.68.06-1.12.19-1.26-.09-.26-.53.48-.88 1.24-1.33.77-.46 1.81-1.7 1.97-2.44.16-.74-.52-.94-.9-1.68-.38-.75 0-1.72-.31-4.26-.32-2.53-2.23-4.21-4.21-5.53-1.16-.77-2.15-.88-3.16-.99-.72-.08-1.44-.16-2.25-.49-1.94-.78-2.51-2.71-2.92-3.65-.4-.94-.96-2.12-2.1-3.38-.64-.71-1.36-.82-2.09-.92-.56-.08-1.14-.17-1.68-.54a2.59 2.59 0 00-.71-.35c-.88-.25-1.56.28-2.23 1.04z" id="mask19_0_3592" data-name="mask19 0 3592"/></mask><mask id="mask-20" x="14.06" y="27.6" width="74.88" height="61.78" maskUnits="userSpaceOnUse"><path class="cls-3" d="M54.29 28.71c-.84.96-1.49 1.15-2.54.77-1.05-.38-2.74-.9-4.81-.06-2.07.83-4.04 4.06-4.04 4.06s-.96-.16-2.11.07-1.47.97-1.47.97-.32-.2-1.69-.37c-1.37-.17-3.48.94-5.56 1.37-2.07.43-2.29-1.14-2.58-1.71-.29-.57-.58-.58-.84-.32-.26.26-2.63 3.04-4.39 4.07-1.76 1.04-2.85.8-4.09 2.02-1.25 1.22-2.27 4.27-3.09 6.47-.82 2.21-1.92 2.78-2.74 5.11-.82 2.33.32 2.79 1.46 4.44 1.14 1.64 2.34 6.04 3.38 8.97 1.03 2.92 1.73 6.62 3.14 8.37.84 1.05 1.7 1.2 2.73 1.39.69.13 1.44.28 2.31.73 2.16 1.14 4.12 3.89 4.85 5.52.73 1.64 1.33 3.84 2.85 4.53 1.52.7 1.5 1.67 2.91 2.9 1.41 1.23 2.92 1.55 3.56 1.28.64-.27-.08-1.27.21-3.47s5.7-7.75 8.52-9.35c2.81-1.6 4.42 1.01 4.76 2.45.33 1.45.82 2.49 2.03 2.57 1.21.08 1.41-.87 3.32.54 1.91 1.41 5 .83 6.72.05 1.72-.78 1.54-1.98 1.13-2.76-.41-.78.11-1.7.76-2.11.64-.42 1.71-.8 2.11-1.5.4-.7 2.19-2.68 3.02-3.34.83-.66 1.23-.62 1.43-1.35.21-.73.73-2.42 1.05-3.15.32-.73.84-1.49 1.57-1.58.74-.09 1.24-.02 1.54-.54.3-.52.75-2.08 2.4-2.09 1.65-.02 3.19-.81 3.67-2.48.48-1.66-1.52-3.18-2.71-4.23-1.19-1.06-3.85-2.49-5.82-3.32-.93-.39-1.72-.39-2.33-.34-.68.06-1.12.19-1.26-.09-.26-.53.48-.88 1.24-1.33.77-.46 1.81-1.7 1.97-2.44.16-.74-.52-.94-.9-1.68-.38-.75 0-1.72-.31-4.26-.32-2.53-2.23-4.21-4.21-5.53-1.16-.77-2.15-.88-3.16-.99-.72-.08-1.44-.16-2.25-.49-1.94-.78-2.51-2.71-2.92-3.65-.4-.94-.96-2.12-2.1-3.38-.64-.71-1.36-.82-2.09-.92-.56-.08-1.14-.17-1.68-.54a2.59 2.59 0 00-.71-.35c-.88-.25-1.56.28-2.23 1.04z" id="mask20_0_3592" data-name="mask20 0 3592"/></mask><mask id="mask-21" x="14.06" y="27.6" width="71.76" height="61.78" maskUnits="userSpaceOnUse"><path class="cls-3" d="M54.29 28.71c-.84.96-1.49 1.15-2.54.77-1.05-.38-2.74-.9-4.81-.06-2.07.83-4.04 4.06-4.04 4.06s-.96-.16-2.11.07-1.47.97-1.47.97-.32-.2-1.69-.37c-1.37-.17-3.48.94-5.56 1.37-2.07.43-2.29-1.14-2.58-1.71-.29-.57-.58-.58-.84-.32-.26.26-2.63 3.04-4.39 4.07-1.76 1.04-2.85.8-4.09 2.02-1.25 1.22-2.27 4.27-3.09 6.47-.82 2.21-1.92 2.78-2.74 5.11-.82 2.33.32 2.79 1.46 4.44 1.14 1.64 2.34 6.04 3.38 8.97 1.03 2.92 1.73 6.62 3.14 8.37.84 1.05 1.7 1.2 2.73 1.39.69.13 1.44.28 2.31.73 2.16 1.14 4.12 3.89 4.85 5.52.73 1.64 1.33 3.84 2.85 4.53 1.52.7 1.5 1.67 2.91 2.9 1.41 1.23 2.92 1.55 3.56 1.28.64-.27-.08-1.27.21-3.47s5.7-7.75 8.52-9.35c2.81-1.6 4.42 1.01 4.76 2.45.33 1.45.82 2.49 2.03 2.57 1.21.08 1.41-.87 3.32.54 1.91 1.41 5 .83 6.72.05 1.72-.78 1.54-1.98 1.13-2.76-.41-.78.11-1.7.76-2.11.64-.42 1.71-.8 2.11-1.5.4-.7 2.19-2.68 3.02-3.34.83-.66 1.23-.62 1.43-1.35.21-.73.73-2.42 1.05-3.15.32-.73.84-1.49 1.57-1.58.74-.09 1.24-.02 1.54-.54.3-.52.75-2.08 2.4-2.09 1.65-.02 3.19-.81 3.67-2.48.48-1.66-1.52-3.18-2.71-4.23-1.19-1.06-3.85-2.49-5.82-3.32-.93-.39-1.72-.39-2.33-.34-.68.06-1.12.19-1.26-.09-.26-.53.48-.88 1.24-1.33.77-.46 1.81-1.7 1.97-2.44.16-.74-.52-.94-.9-1.68-.38-.75 0-1.72-.31-4.26-.32-2.53-2.23-4.21-4.21-5.53-1.16-.77-2.15-.88-3.16-.99-.72-.08-1.44-.16-2.25-.49-1.94-.78-2.51-2.71-2.92-3.65-.4-.94-.96-2.12-2.1-3.38-.64-.71-1.36-.82-2.09-.92-.56-.08-1.14-.17-1.68-.54a2.59 2.59 0 00-.71-.35c-.88-.25-1.56.28-2.23 1.04z" id="mask21_0_3592" data-name="mask21 0 3592"/></mask><mask id="mask-22" x="14.06" y="27.6" width="71.76" height="61.78" maskUnits="userSpaceOnUse"><path class="cls-3" d="M54.29 28.71c-.84.96-1.49 1.15-2.54.77-1.05-.38-2.74-.9-4.81-.06-2.07.83-4.04 4.06-4.04 4.06s-.96-.16-2.11.07-1.47.97-1.47.97-.32-.2-1.69-.37c-1.37-.17-3.48.94-5.56 1.37-2.07.43-2.29-1.14-2.58-1.71-.29-.57-.58-.58-.84-.32-.26.26-2.63 3.04-4.39 4.07-1.76 1.04-2.85.8-4.09 2.02-1.25 1.22-2.27 4.27-3.09 6.47-.82 2.21-1.92 2.78-2.74 5.11-.82 2.33.32 2.79 1.46 4.44 1.14 1.64 2.34 6.04 3.38 8.97 1.03 2.92 1.73 6.62 3.14 8.37.84 1.05 1.7 1.2 2.73 1.39.69.13 1.44.28 2.31.73 2.16 1.14 4.12 3.89 4.85 5.52.73 1.64 1.33 3.84 2.85 4.53 1.52.7 1.5 1.67 2.91 2.9 1.41 1.23 2.92 1.55 3.56 1.28.64-.27-.08-1.27.21-3.47s5.7-7.75 8.52-9.35c2.81-1.6 4.42 1.01 4.76 2.45.33 1.45.82 2.49 2.03 2.57 1.21.08 1.41-.87 3.32.54 1.91 1.41 5 .83 6.72.05 1.72-.78 1.54-1.98 1.13-2.76-.41-.78.11-1.7.76-2.11.64-.42 1.71-.8 2.11-1.5.4-.7 2.19-2.68 3.02-3.34.83-.66 1.23-.62 1.43-1.35.21-.73.73-2.42 1.05-3.15.32-.73.84-1.49 1.57-1.58.74-.09 1.24-.02 1.54-.54.3-.52.75-2.08 2.4-2.09 1.65-.02 3.19-.81 3.67-2.48.48-1.66-1.52-3.18-2.71-4.23-1.19-1.06-3.85-2.49-5.82-3.32-.93-.39-1.72-.39-2.33-.34-.68.06-1.12.19-1.26-.09-.26-.53.48-.88 1.24-1.33.77-.46 1.81-1.7 1.97-2.44.16-.74-.52-.94-.9-1.68-.38-.75 0-1.72-.31-4.26-.32-2.53-2.23-4.21-4.21-5.53-1.16-.77-2.15-.88-3.16-.99-.72-.08-1.44-.16-2.25-.49-1.94-.78-2.51-2.71-2.92-3.65-.4-.94-.96-2.12-2.1-3.38-.64-.71-1.36-.82-2.09-.92-.56-.08-1.14-.17-1.68-.54a2.59 2.59 0 00-.71-.35c-.88-.25-1.56.28-2.23 1.04z" id="mask22_0_3592" data-name="mask22 0 3592"/></mask><mask id="mask-23" x="4.09" y="27.6" width="81.73" height="61.78" maskUnits="userSpaceOnUse"><path class="cls-3" d="M54.29 28.71c-.84.96-1.49 1.15-2.54.77-1.05-.38-2.74-.9-4.81-.06-2.07.83-4.04 4.06-4.04 4.06s-.96-.16-2.11.07-1.47.97-1.47.97-.32-.2-1.69-.37c-1.37-.17-3.48.94-5.56 1.37-2.07.43-2.29-1.14-2.58-1.71-.29-.57-.58-.58-.84-.32-.26.26-2.63 3.04-4.39 4.07-1.76 1.04-2.85.8-4.09 2.02-1.25 1.22-2.27 4.27-3.09 6.47-.82 2.21-1.92 2.78-2.74 5.11-.82 2.33.32 2.79 1.46 4.44 1.14 1.64 2.34 6.04 3.38 8.97 1.03 2.92 1.73 6.62 3.14 8.37.84 1.05 1.7 1.2 2.73 1.39.69.13 1.44.28 2.31.73 2.16 1.14 4.12 3.89 4.85 5.52.73 1.64 1.33 3.84 2.85 4.53 1.52.7 1.5 1.67 2.91 2.9 1.41 1.23 2.92 1.55 3.56 1.28.64-.27-.08-1.27.21-3.47s5.7-7.75 8.52-9.35c2.81-1.6 4.42 1.01 4.76 2.45.33 1.45.82 2.49 2.03 2.57 1.21.08 1.41-.87 3.32.54 1.91 1.41 5 .83 6.72.05 1.72-.78 1.54-1.98 1.13-2.76-.41-.78.11-1.7.76-2.11.64-.42 1.71-.8 2.11-1.5.4-.7 2.19-2.68 3.02-3.34.83-.66 1.23-.62 1.43-1.35.21-.73.73-2.42 1.05-3.15.32-.73.84-1.49 1.57-1.58.74-.09 1.24-.02 1.54-.54.3-.52.75-2.08 2.4-2.09 1.65-.02 3.19-.81 3.67-2.48.48-1.66-1.52-3.18-2.71-4.23-1.19-1.06-3.85-2.49-5.82-3.32-.93-.39-1.72-.39-2.33-.34-.68.06-1.12.19-1.26-.09-.26-.53.48-.88 1.24-1.33.77-.46 1.81-1.7 1.97-2.44.16-.74-.52-.94-.9-1.68-.38-.75 0-1.72-.31-4.26-.32-2.53-2.23-4.21-4.21-5.53-1.16-.77-2.15-.88-3.16-.99-.72-.08-1.44-.16-2.25-.49-1.94-.78-2.51-2.71-2.92-3.65-.4-.94-.96-2.12-2.1-3.38-.64-.71-1.36-.82-2.09-.92-.56-.08-1.14-.17-1.68-.54a2.59 2.59 0 00-.71-.35c-.88-.25-1.56.28-2.23 1.04z" id="mask23_0_3592" data-name="mask23 0 3592"/></mask><mask id="mask-24" x="3.29" y="27.6" width="82.53" height="61.78" maskUnits="userSpaceOnUse"><path class="cls-3" d="M54.29 28.71c-.84.96-1.49 1.15-2.54.77-1.05-.38-2.74-.9-4.81-.06-2.07.83-4.04 4.06-4.04 4.06s-.96-.16-2.11.07-1.47.97-1.47.97-.32-.2-1.69-.37c-1.37-.17-3.48.94-5.56 1.37-2.07.43-2.29-1.14-2.58-1.71-.29-.57-.58-.58-.84-.32-.26.26-2.63 3.04-4.39 4.07-1.76 1.04-2.85.8-4.09 2.02-1.25 1.22-2.27 4.27-3.09 6.47-.82 2.21-1.92 2.78-2.74 5.11-.82 2.33.32 2.79 1.46 4.44 1.14 1.64 2.34 6.04 3.38 8.97 1.03 2.92 1.73 6.62 3.14 8.37.84 1.05 1.7 1.2 2.73 1.39.69.13 1.44.28 2.31.73 2.16 1.14 4.12 3.89 4.85 5.52.73 1.64 1.33 3.84 2.85 4.53 1.52.7 1.5 1.67 2.91 2.9 1.41 1.23 2.92 1.55 3.56 1.28.64-.27-.08-1.27.21-3.47s5.7-7.75 8.52-9.35c2.81-1.6 4.42 1.01 4.76 2.45.33 1.45.82 2.49 2.03 2.57 1.21.08 1.41-.87 3.32.54 1.91 1.41 5 .83 6.72.05 1.72-.78 1.54-1.98 1.13-2.76-.41-.78.11-1.7.76-2.11.64-.42 1.71-.8 2.11-1.5.4-.7 2.19-2.68 3.02-3.34.83-.66 1.23-.62 1.43-1.35.21-.73.73-2.42 1.05-3.15.32-.73.84-1.49 1.57-1.58.74-.09 1.24-.02 1.54-.54.3-.52.75-2.08 2.4-2.09 1.65-.02 3.19-.81 3.67-2.48.48-1.66-1.52-3.18-2.71-4.23-1.19-1.06-3.85-2.49-5.82-3.32-.93-.39-1.72-.39-2.33-.34-.68.06-1.12.19-1.26-.09-.26-.53.48-.88 1.24-1.33.77-.46 1.81-1.7 1.97-2.44.16-.74-.52-.94-.9-1.68-.38-.75 0-1.72-.31-4.26-.32-2.53-2.23-4.21-4.21-5.53-1.16-.77-2.15-.88-3.16-.99-.72-.08-1.44-.16-2.25-.49-1.94-.78-2.51-2.71-2.92-3.65-.4-.94-.96-2.12-2.1-3.38-.64-.71-1.36-.82-2.09-.92-.56-.08-1.14-.17-1.68-.54a2.59 2.59 0 00-.71-.35c-.88-.25-1.56.28-2.23 1.04z" id="mask24_0_3592" data-name="mask24 0 3592"/></mask><mask id="mask-25" x="14.06" y="27.6" width="71.76" height="61.78" maskUnits="userSpaceOnUse"><path class="cls-3" d="M54.29 28.71c-.84.96-1.49 1.15-2.54.77-1.05-.38-2.74-.9-4.81-.06-2.07.83-4.04 4.06-4.04 4.06s-.96-.16-2.11.07-1.47.97-1.47.97-.32-.2-1.69-.37c-1.37-.17-3.48.94-5.56 1.37-2.07.43-2.29-1.14-2.58-1.71-.29-.57-.58-.58-.84-.32-.26.26-2.63 3.04-4.39 4.07-1.76 1.04-2.85.8-4.09 2.02-1.25 1.22-2.27 4.27-3.09 6.47-.82 2.21-1.92 2.78-2.74 5.11-.82 2.33.32 2.79 1.46 4.44 1.14 1.64 2.34 6.04 3.38 8.97 1.03 2.92 1.73 6.62 3.14 8.37.84 1.05 1.7 1.2 2.73 1.39.69.13 1.44.28 2.31.73 2.16 1.14 4.12 3.89 4.85 5.52.73 1.64 1.33 3.84 2.85 4.53 1.52.7 1.5 1.67 2.91 2.9 1.41 1.23 2.92 1.55 3.56 1.28.64-.27-.08-1.27.21-3.47s5.7-7.75 8.52-9.35c2.81-1.6 4.42 1.01 4.76 2.45.33 1.45.82 2.49 2.03 2.57 1.21.08 1.41-.87 3.32.54 1.91 1.41 5 .83 6.72.05 1.72-.78 1.54-1.98 1.13-2.76-.41-.78.11-1.7.76-2.11.64-.42 1.71-.8 2.11-1.5.4-.7 2.19-2.68 3.02-3.34.83-.66 1.23-.62 1.43-1.35.21-.73.73-2.42 1.05-3.15.32-.73.84-1.49 1.57-1.58.74-.09 1.24-.02 1.54-.54.3-.52.75-2.08 2.4-2.09 1.65-.02 3.19-.81 3.67-2.48.48-1.66-1.52-3.18-2.71-4.23-1.19-1.06-3.85-2.49-5.82-3.32-.93-.39-1.72-.39-2.33-.34-.68.06-1.12.19-1.26-.09-.26-.53.48-.88 1.24-1.33.77-.46 1.81-1.7 1.97-2.44.16-.74-.52-.94-.9-1.68-.38-.75 0-1.72-.31-4.26-.32-2.53-2.23-4.21-4.21-5.53-1.16-.77-2.15-.88-3.16-.99-.72-.08-1.44-.16-2.25-.49-1.94-.78-2.51-2.71-2.92-3.65-.4-.94-.96-2.12-2.1-3.38-.64-.71-1.36-.82-2.09-.92-.56-.08-1.14-.17-1.68-.54a2.59 2.59 0 00-.71-.35c-.88-.25-1.56.28-2.23 1.04z" id="mask25_0_3592" data-name="mask25 0 3592"/></mask><mask id="mask-26" x="14.06" y="27.6" width="71.76" height="61.78" maskUnits="userSpaceOnUse"><path class="cls-3" d="M54.29 28.71c-.84.96-1.49 1.15-2.54.77-1.05-.38-2.74-.9-4.81-.06-2.07.83-4.04 4.06-4.04 4.06s-.96-.16-2.11.07-1.47.97-1.47.97-.32-.2-1.69-.37c-1.37-.17-3.48.94-5.56 1.37-2.07.43-2.29-1.14-2.58-1.71-.29-.57-.58-.58-.84-.32-.26.26-2.63 3.04-4.39 4.07-1.76 1.04-2.85.8-4.09 2.02-1.25 1.22-2.27 4.27-3.09 6.47-.82 2.21-1.92 2.78-2.74 5.11-.82 2.33.32 2.79 1.46 4.44 1.14 1.64 2.34 6.04 3.38 8.97 1.03 2.92 1.73 6.62 3.14 8.37.84 1.05 1.7 1.2 2.73 1.39.69.13 1.44.28 2.31.73 2.16 1.14 4.12 3.89 4.85 5.52.73 1.64 1.33 3.84 2.85 4.53 1.52.7 1.5 1.67 2.91 2.9 1.41 1.23 2.92 1.55 3.56 1.28.64-.27-.08-1.27.21-3.47s5.7-7.75 8.52-9.35c2.81-1.6 4.42 1.01 4.76 2.45.33 1.45.82 2.49 2.03 2.57 1.21.08 1.41-.87 3.32.54 1.91 1.41 5 .83 6.72.05 1.72-.78 1.54-1.98 1.13-2.76-.41-.78.11-1.7.76-2.11.64-.42 1.71-.8 2.11-1.5.4-.7 2.19-2.68 3.02-3.34.83-.66 1.23-.62 1.43-1.35.21-.73.73-2.42 1.05-3.15.32-.73.84-1.49 1.57-1.58.74-.09 1.24-.02 1.54-.54.3-.52.75-2.08 2.4-2.09 1.65-.02 3.19-.81 3.67-2.48.48-1.66-1.52-3.18-2.71-4.23-1.19-1.06-3.85-2.49-5.82-3.32-.93-.39-1.72-.39-2.33-.34-.68.06-1.12.19-1.26-.09-.26-.53.48-.88 1.24-1.33.77-.46 1.81-1.7 1.97-2.44.16-.74-.52-.94-.9-1.68-.38-.75 0-1.72-.31-4.26-.32-2.53-2.23-4.21-4.21-5.53-1.16-.77-2.15-.88-3.16-.99-.72-.08-1.44-.16-2.25-.49-1.94-.78-2.51-2.71-2.92-3.65-.4-.94-.96-2.12-2.1-3.38-.64-.71-1.36-.82-2.09-.92-.56-.08-1.14-.17-1.68-.54a2.59 2.59 0 00-.71-.35c-.88-.25-1.56.28-2.23 1.04z" id="mask26_0_3592" data-name="mask26 0 3592"/></mask><mask id="mask-27" x=".59" y="27.6" width="85.23" height="61.78" maskUnits="userSpaceOnUse"><path class="cls-3" d="M54.29 28.71c-.84.96-1.49 1.15-2.54.77-1.05-.38-2.74-.9-4.81-.06-2.07.83-4.04 4.06-4.04 4.06s-.96-.16-2.11.07-1.47.97-1.47.97-.32-.2-1.69-.37c-1.37-.17-3.48.94-5.56 1.37-2.07.43-2.29-1.14-2.58-1.71-.29-.57-.58-.58-.84-.32-.26.26-2.63 3.04-4.39 4.07-1.76 1.04-2.85.8-4.09 2.02-1.25 1.22-2.27 4.27-3.09 6.47-.82 2.21-1.92 2.78-2.74 5.11-.82 2.33.32 2.79 1.46 4.44 1.14 1.64 2.34 6.04 3.38 8.97 1.03 2.92 1.73 6.62 3.14 8.37.84 1.05 1.7 1.2 2.73 1.39.69.13 1.44.28 2.31.73 2.16 1.14 4.12 3.89 4.85 5.52.73 1.64 1.33 3.84 2.85 4.53 1.52.7 1.5 1.67 2.91 2.9 1.41 1.23 2.92 1.55 3.56 1.28.64-.27-.08-1.27.21-3.47s5.7-7.75 8.52-9.35c2.81-1.6 4.42 1.01 4.76 2.45.33 1.45.82 2.49 2.03 2.57 1.21.08 1.41-.87 3.32.54 1.91 1.41 5 .83 6.72.05 1.72-.78 1.54-1.98 1.13-2.76-.41-.78.11-1.7.76-2.11.64-.42 1.71-.8 2.11-1.5.4-.7 2.19-2.68 3.02-3.34.83-.66 1.23-.62 1.43-1.35.21-.73.73-2.42 1.05-3.15.32-.73.84-1.49 1.57-1.58.74-.09 1.24-.02 1.54-.54.3-.52.75-2.08 2.4-2.09 1.65-.02 3.19-.81 3.67-2.48.48-1.66-1.52-3.18-2.71-4.23-1.19-1.06-3.85-2.49-5.82-3.32-.93-.39-1.72-.39-2.33-.34-.68.06-1.12.19-1.26-.09-.26-.53.48-.88 1.24-1.33.77-.46 1.81-1.7 1.97-2.44.16-.74-.52-.94-.9-1.68-.38-.75 0-1.72-.31-4.26-.32-2.53-2.23-4.21-4.21-5.53-1.16-.77-2.15-.88-3.16-.99-.72-.08-1.44-.16-2.25-.49-1.94-.78-2.51-2.71-2.92-3.65-.4-.94-.96-2.12-2.1-3.38-.64-.71-1.36-.82-2.09-.92-.56-.08-1.14-.17-1.68-.54a2.59 2.59 0 00-.71-.35c-.88-.25-1.56.28-2.23 1.04z" id="mask27_0_3592" data-name="mask27 0 3592"/></mask><mask id="mask-28" y="27.6" width="85.82" height="61.78" maskUnits="userSpaceOnUse"><path class="cls-3" d="M54.29 28.71c-.84.96-1.49 1.15-2.54.77-1.05-.38-2.74-.9-4.81-.06-2.07.83-4.04 4.06-4.04 4.06s-.96-.16-2.11.07-1.47.97-1.47.97-.32-.2-1.69-.37c-1.37-.17-3.48.94-5.56 1.37-2.07.43-2.29-1.14-2.58-1.71-.29-.57-.58-.58-.84-.32-.26.26-2.63 3.04-4.39 4.07-1.76 1.04-2.85.8-4.09 2.02-1.25 1.22-2.27 4.27-3.09 6.47-.82 2.21-1.92 2.78-2.74 5.11-.82 2.33.32 2.79 1.46 4.44 1.14 1.64 2.34 6.04 3.38 8.97 1.03 2.92 1.73 6.62 3.14 8.37.84 1.05 1.7 1.2 2.73 1.39.69.13 1.44.28 2.31.73 2.16 1.14 4.12 3.89 4.85 5.52.73 1.64 1.33 3.84 2.85 4.53 1.52.7 1.5 1.67 2.91 2.9 1.41 1.23 2.92 1.55 3.56 1.28.64-.27-.08-1.27.21-3.47s5.7-7.75 8.52-9.35c2.81-1.6 4.42 1.01 4.76 2.45.33 1.45.82 2.49 2.03 2.57 1.21.08 1.41-.87 3.32.54 1.91 1.41 5 .83 6.72.05 1.72-.78 1.54-1.98 1.13-2.76-.41-.78.11-1.7.76-2.11.64-.42 1.71-.8 2.11-1.5.4-.7 2.19-2.68 3.02-3.34.83-.66 1.23-.62 1.43-1.35.21-.73.73-2.42 1.05-3.15.32-.73.84-1.49 1.57-1.58.74-.09 1.24-.02 1.54-.54.3-.52.75-2.08 2.4-2.09 1.65-.02 3.19-.81 3.67-2.48.48-1.66-1.52-3.18-2.71-4.23-1.19-1.06-3.85-2.49-5.82-3.32-.93-.39-1.72-.39-2.33-.34-.68.06-1.12.19-1.26-.09-.26-.53.48-.88 1.24-1.33.77-.46 1.81-1.7 1.97-2.44.16-.74-.52-.94-.9-1.68-.38-.75 0-1.72-.31-4.26-.32-2.53-2.23-4.21-4.21-5.53-1.16-.77-2.15-.88-3.16-.99-.72-.08-1.44-.16-2.25-.49-1.94-.78-2.51-2.71-2.92-3.65-.4-.94-.96-2.12-2.1-3.38-.64-.71-1.36-.82-2.09-.92-.56-.08-1.14-.17-1.68-.54a2.59 2.59 0 00-.71-.35c-.88-.25-1.56.28-2.23 1.04z" id="mask28_0_3592" data-name="mask28 0 3592"/></mask><mask id="mask-29" x="14.06" y="27.6" width="71.76" height="61.78" maskUnits="userSpaceOnUse"><path class="cls-3" d="M54.29 28.71c-.84.96-1.49 1.15-2.54.77-1.05-.38-2.74-.9-4.81-.06-2.07.83-4.04 4.06-4.04 4.06s-.96-.16-2.11.07-1.47.97-1.47.97-.32-.2-1.69-.37c-1.37-.17-3.48.94-5.56 1.37-2.07.43-2.29-1.14-2.58-1.71-.29-.57-.58-.58-.84-.32-.26.26-2.63 3.04-4.39 4.07-1.76 1.04-2.85.8-4.09 2.02-1.25 1.22-2.27 4.27-3.09 6.47-.82 2.21-1.92 2.78-2.74 5.11-.82 2.33.32 2.79 1.46 4.44 1.14 1.64 2.34 6.04 3.38 8.97 1.03 2.92 1.73 6.62 3.14 8.37.84 1.05 1.7 1.2 2.73 1.39.69.13 1.44.28 2.31.73 2.16 1.14 4.12 3.89 4.85 5.52.73 1.64 1.33 3.84 2.85 4.53 1.52.7 1.5 1.67 2.91 2.9 1.41 1.23 2.92 1.55 3.56 1.28.64-.27-.08-1.27.21-3.47s5.7-7.75 8.52-9.35c2.81-1.6 4.42 1.01 4.76 2.45.33 1.45.82 2.49 2.03 2.57 1.21.08 1.41-.87 3.32.54 1.91 1.41 5 .83 6.72.05 1.72-.78 1.54-1.98 1.13-2.76-.41-.78.11-1.7.76-2.11.64-.42 1.71-.8 2.11-1.5.4-.7 2.19-2.68 3.02-3.34.83-.66 1.23-.62 1.43-1.35.21-.73.73-2.42 1.05-3.15.32-.73.84-1.49 1.57-1.58.74-.09 1.24-.02 1.54-.54.3-.52.75-2.08 2.4-2.09 1.65-.02 3.19-.81 3.67-2.48.48-1.66-1.52-3.18-2.71-4.23-1.19-1.06-3.85-2.49-5.82-3.32-.93-.39-1.72-.39-2.33-.34-.68.06-1.12.19-1.26-.09-.26-.53.48-.88 1.24-1.33.77-.46 1.81-1.7 1.97-2.44.16-.74-.52-.94-.9-1.68-.38-.75 0-1.72-.31-4.26-.32-2.53-2.23-4.21-4.21-5.53-1.16-.77-2.15-.88-3.16-.99-.72-.08-1.44-.16-2.25-.49-1.94-.78-2.51-2.71-2.92-3.65-.4-.94-.96-2.12-2.1-3.38-.64-.71-1.36-.82-2.09-.92-.56-.08-1.14-.17-1.68-.54a2.59 2.59 0 00-.71-.35c-.88-.25-1.56.28-2.23 1.04z" id="mask29_0_3592" data-name="mask29 0 3592"/></mask><mask id="mask-30" x="14.06" y="27.6" width="71.76" height="61.78" maskUnits="userSpaceOnUse"><path class="cls-3" d="M54.29 28.71c-.84.96-1.49 1.15-2.54.77-1.05-.38-2.74-.9-4.81-.06-2.07.83-4.04 4.06-4.04 4.06s-.96-.16-2.11.07-1.47.97-1.47.97-.32-.2-1.69-.37c-1.37-.17-3.48.94-5.56 1.37-2.07.43-2.29-1.14-2.58-1.71-.29-.57-.58-.58-.84-.32-.26.26-2.63 3.04-4.39 4.07-1.76 1.04-2.85.8-4.09 2.02-1.25 1.22-2.27 4.27-3.09 6.47-.82 2.21-1.92 2.78-2.74 5.11-.82 2.33.32 2.79 1.46 4.44 1.14 1.64 2.34 6.04 3.38 8.97 1.03 2.92 1.73 6.62 3.14 8.37.84 1.05 1.7 1.2 2.73 1.39.69.13 1.44.28 2.31.73 2.16 1.14 4.12 3.89 4.85 5.52.73 1.64 1.33 3.84 2.85 4.53 1.52.7 1.5 1.67 2.91 2.9 1.41 1.23 2.92 1.55 3.56 1.28.64-.27-.08-1.27.21-3.47s5.7-7.75 8.52-9.35c2.81-1.6 4.42 1.01 4.76 2.45.33 1.45.82 2.49 2.03 2.57 1.21.08 1.41-.87 3.32.54 1.91 1.41 5 .83 6.72.05 1.72-.78 1.54-1.98 1.13-2.76-.41-.78.11-1.7.76-2.11.64-.42 1.71-.8 2.11-1.5.4-.7 2.19-2.68 3.02-3.34.83-.66 1.23-.62 1.43-1.35.21-.73.73-2.42 1.05-3.15.32-.73.84-1.49 1.57-1.58.74-.09 1.24-.02 1.54-.54.3-.52.75-2.08 2.4-2.09 1.65-.02 3.19-.81 3.67-2.48.48-1.66-1.52-3.18-2.71-4.23-1.19-1.06-3.85-2.49-5.82-3.32-.93-.39-1.72-.39-2.33-.34-.68.06-1.12.19-1.26-.09-.26-.53.48-.88 1.24-1.33.77-.46 1.81-1.7 1.97-2.44.16-.74-.52-.94-.9-1.68-.38-.75 0-1.72-.31-4.26-.32-2.53-2.23-4.21-4.21-5.53-1.16-.77-2.15-.88-3.16-.99-.72-.08-1.44-.16-2.25-.49-1.94-.78-2.51-2.71-2.92-3.65-.4-.94-.96-2.12-2.1-3.38-.64-.71-1.36-.82-2.09-.92-.56-.08-1.14-.17-1.68-.54a2.59 2.59 0 00-.71-.35c-.88-.25-1.56.28-2.23 1.04z" id="mask30_0_3592" data-name="mask30 0 3592"/></mask><mask id="mask-31" x="14.06" y="27.6" width="71.76" height="61.78" maskUnits="userSpaceOnUse"><path class="cls-3" d="M54.29 28.71c-.84.96-1.49 1.15-2.54.77-1.05-.38-2.74-.9-4.81-.06-2.07.83-4.04 4.06-4.04 4.06s-.96-.16-2.11.07-1.47.97-1.47.97-.32-.2-1.69-.37c-1.37-.17-3.48.94-5.56 1.37-2.07.43-2.29-1.14-2.58-1.71-.29-.57-.58-.58-.84-.32-.26.26-2.63 3.04-4.39 4.07-1.76 1.04-2.85.8-4.09 2.02-1.25 1.22-2.27 4.27-3.09 6.47-.82 2.21-1.92 2.78-2.74 5.11-.82 2.33.32 2.79 1.46 4.44 1.14 1.64 2.34 6.04 3.38 8.97 1.03 2.92 1.73 6.62 3.14 8.37.84 1.05 1.7 1.2 2.73 1.39.69.13 1.44.28 2.31.73 2.16 1.14 4.12 3.89 4.85 5.52.73 1.64 1.33 3.84 2.85 4.53 1.52.7 1.5 1.67 2.91 2.9 1.41 1.23 2.92 1.55 3.56 1.28.64-.27-.08-1.27.21-3.47s5.7-7.75 8.52-9.35c2.81-1.6 4.42 1.01 4.76 2.45.33 1.45.82 2.49 2.03 2.57 1.21.08 1.41-.87 3.32.54 1.91 1.41 5 .83 6.72.05 1.72-.78 1.54-1.98 1.13-2.76-.41-.78.11-1.7.76-2.11.64-.42 1.71-.8 2.11-1.5.4-.7 2.19-2.68 3.02-3.34.83-.66 1.23-.62 1.43-1.35.21-.73.73-2.42 1.05-3.15.32-.73.84-1.49 1.57-1.58.74-.09 1.24-.02 1.54-.54.3-.52.75-2.08 2.4-2.09 1.65-.02 3.19-.81 3.67-2.48.48-1.66-1.52-3.18-2.71-4.23-1.19-1.06-3.85-2.49-5.82-3.32-.93-.39-1.72-.39-2.33-.34-.68.06-1.12.19-1.26-.09-.26-.53.48-.88 1.24-1.33.77-.46 1.81-1.7 1.97-2.44.16-.74-.52-.94-.9-1.68-.38-.75 0-1.72-.31-4.26-.32-2.53-2.23-4.21-4.21-5.53-1.16-.77-2.15-.88-3.16-.99-.72-.08-1.44-.16-2.25-.49-1.94-.78-2.51-2.71-2.92-3.65-.4-.94-.96-2.12-2.1-3.38-.64-.71-1.36-.82-2.09-.92-.56-.08-1.14-.17-1.68-.54a2.59 2.59 0 00-.71-.35c-.88-.25-1.56.28-2.23 1.04z" id="mask31_0_3592" data-name="mask31 0 3592"/></mask><mask id="mask-32" x="14.06" y="27.6" width="71.76" height="61.78" maskUnits="userSpaceOnUse"><path class="cls-3" d="M54.29 28.71c-.84.96-1.49 1.15-2.54.77-1.05-.38-2.74-.9-4.81-.06-2.07.83-4.04 4.06-4.04 4.06s-.96-.16-2.11.07-1.47.97-1.47.97-.32-.2-1.69-.37c-1.37-.17-3.48.94-5.56 1.37-2.07.43-2.29-1.14-2.58-1.71-.29-.57-.58-.58-.84-.32-.26.26-2.63 3.04-4.39 4.07-1.76 1.04-2.85.8-4.09 2.02-1.25 1.22-2.27 4.27-3.09 6.47-.82 2.21-1.92 2.78-2.74 5.11-.82 2.33.32 2.79 1.46 4.44 1.14 1.64 2.34 6.04 3.38 8.97 1.03 2.92 1.73 6.62 3.14 8.37.84 1.05 1.7 1.2 2.73 1.39.69.13 1.44.28 2.31.73 2.16 1.14 4.12 3.89 4.85 5.52.73 1.64 1.33 3.84 2.85 4.53 1.52.7 1.5 1.67 2.91 2.9 1.41 1.23 2.92 1.55 3.56 1.28.64-.27-.08-1.27.21-3.47s5.7-7.75 8.52-9.35c2.81-1.6 4.42 1.01 4.76 2.45.33 1.45.82 2.49 2.03 2.57 1.21.08 1.41-.87 3.32.54 1.91 1.41 5 .83 6.72.05 1.72-.78 1.54-1.98 1.13-2.76-.41-.78.11-1.7.76-2.11.64-.42 1.71-.8 2.11-1.5.4-.7 2.19-2.68 3.02-3.34.83-.66 1.23-.62 1.43-1.35.21-.73.73-2.42 1.05-3.15.32-.73.84-1.49 1.57-1.58.74-.09 1.24-.02 1.54-.54.3-.52.75-2.08 2.4-2.09 1.65-.02 3.19-.81 3.67-2.48.48-1.66-1.52-3.18-2.71-4.23-1.19-1.06-3.85-2.49-5.82-3.32-.93-.39-1.72-.39-2.33-.34-.68.06-1.12.19-1.26-.09-.26-.53.48-.88 1.24-1.33.77-.46 1.81-1.7 1.97-2.44.16-.74-.52-.94-.9-1.68-.38-.75 0-1.72-.31-4.26-.32-2.53-2.23-4.21-4.21-5.53-1.16-.77-2.15-.88-3.16-.99-.72-.08-1.44-.16-2.25-.49-1.94-.78-2.51-2.71-2.92-3.65-.4-.94-.96-2.12-2.1-3.38-.64-.71-1.36-.82-2.09-.92-.56-.08-1.14-.17-1.68-.54a2.59 2.59 0 00-.71-.35c-.88-.25-1.56.28-2.23 1.04z" id="mask32_0_3592" data-name="mask32 0 3592"/></mask><mask id="mask-33" x="14.06" y="27.6" width="72.34" height="61.78" maskUnits="userSpaceOnUse"><path class="cls-3" d="M54.29 28.71c-.84.96-1.49 1.15-2.54.77-1.05-.38-2.74-.9-4.81-.06-2.07.83-4.04 4.06-4.04 4.06s-.96-.16-2.11.07-1.47.97-1.47.97-.32-.2-1.69-.37c-1.37-.17-3.48.94-5.56 1.37-2.07.43-2.29-1.14-2.58-1.71-.29-.57-.58-.58-.84-.32-.26.26-2.63 3.04-4.39 4.07-1.76 1.04-2.85.8-4.09 2.02-1.25 1.22-2.27 4.27-3.09 6.47-.82 2.21-1.92 2.78-2.74 5.11-.82 2.33.32 2.79 1.46 4.44 1.14 1.64 2.34 6.04 3.38 8.97 1.03 2.92 1.73 6.62 3.14 8.37.84 1.05 1.7 1.2 2.73 1.39.69.13 1.44.28 2.31.73 2.16 1.14 4.12 3.89 4.85 5.52.73 1.64 1.33 3.84 2.85 4.53 1.52.7 1.5 1.67 2.91 2.9 1.41 1.23 2.92 1.55 3.56 1.28.64-.27-.08-1.27.21-3.47s5.7-7.75 8.52-9.35c2.81-1.6 4.42 1.01 4.76 2.45.33 1.45.82 2.49 2.03 2.57 1.21.08 1.41-.87 3.32.54 1.91 1.41 5 .83 6.72.05 1.72-.78 1.54-1.98 1.13-2.76-.41-.78.11-1.7.76-2.11.64-.42 1.71-.8 2.11-1.5.4-.7 2.19-2.68 3.02-3.34.83-.66 1.23-.62 1.43-1.35.21-.73.73-2.42 1.05-3.15.32-.73.84-1.49 1.57-1.58.74-.09 1.24-.02 1.54-.54.3-.52.75-2.08 2.4-2.09 1.65-.02 3.19-.81 3.67-2.48.48-1.66-1.52-3.18-2.71-4.23-1.19-1.06-3.85-2.49-5.82-3.32-.93-.39-1.72-.39-2.33-.34-.68.06-1.12.19-1.26-.09-.26-.53.48-.88 1.24-1.33.77-.46 1.81-1.7 1.97-2.44.16-.74-.52-.94-.9-1.68-.38-.75 0-1.72-.31-4.26-.32-2.53-2.23-4.21-4.21-5.53-1.16-.77-2.15-.88-3.16-.99-.72-.08-1.44-.16-2.25-.49-1.94-.78-2.51-2.71-2.92-3.65-.4-.94-.96-2.12-2.1-3.38-.64-.71-1.36-.82-2.09-.92-.56-.08-1.14-.17-1.68-.54a2.59 2.59 0 00-.71-.35c-.88-.25-1.56.28-2.23 1.04z" id="mask33_0_3592" data-name="mask33 0 3592"/></mask><mask id="mask-34" x="14.06" y="27.6" width="75.02" height="61.78" maskUnits="userSpaceOnUse"><path class="cls-3" d="M54.29 28.71c-.84.96-1.49 1.15-2.54.77-1.05-.38-2.74-.9-4.81-.06-2.07.83-4.04 4.06-4.04 4.06s-.96-.16-2.11.07-1.47.97-1.47.97-.32-.2-1.69-.37c-1.37-.17-3.48.94-5.56 1.37-2.07.43-2.29-1.14-2.58-1.71-.29-.57-.58-.58-.84-.32-.26.26-2.63 3.04-4.39 4.07-1.76 1.04-2.85.8-4.09 2.02-1.25 1.22-2.27 4.27-3.09 6.47-.82 2.21-1.92 2.78-2.74 5.11-.82 2.33.32 2.79 1.46 4.44 1.14 1.64 2.34 6.04 3.38 8.97 1.03 2.92 1.73 6.62 3.14 8.37.84 1.05 1.7 1.2 2.73 1.39.69.13 1.44.28 2.31.73 2.16 1.14 4.12 3.89 4.85 5.52.73 1.64 1.33 3.84 2.85 4.53 1.52.7 1.5 1.67 2.91 2.9 1.41 1.23 2.92 1.55 3.56 1.28.64-.27-.08-1.27.21-3.47s5.7-7.75 8.52-9.35c2.81-1.6 4.42 1.01 4.76 2.45.33 1.45.82 2.49 2.03 2.57 1.21.08 1.41-.87 3.32.54 1.91 1.41 5 .83 6.72.05 1.72-.78 1.54-1.98 1.13-2.76-.41-.78.11-1.7.76-2.11.64-.42 1.71-.8 2.11-1.5.4-.7 2.19-2.68 3.02-3.34.83-.66 1.23-.62 1.43-1.35.21-.73.73-2.42 1.05-3.15.32-.73.84-1.49 1.57-1.58.74-.09 1.24-.02 1.54-.54.3-.52.75-2.08 2.4-2.09 1.65-.02 3.19-.81 3.67-2.48.48-1.66-1.52-3.18-2.71-4.23-1.19-1.06-3.85-2.49-5.82-3.32-.93-.39-1.72-.39-2.33-.34-.68.06-1.12.19-1.26-.09-.26-.53.48-.88 1.24-1.33.77-.46 1.81-1.7 1.97-2.44.16-.74-.52-.94-.9-1.68-.38-.75 0-1.72-.31-4.26-.32-2.53-2.23-4.21-4.21-5.53-1.16-.77-2.15-.88-3.16-.99-.72-.08-1.44-.16-2.25-.49-1.94-.78-2.51-2.71-2.92-3.65-.4-.94-.96-2.12-2.1-3.38-.64-.71-1.36-.82-2.09-.92-.56-.08-1.14-.17-1.68-.54a2.59 2.59 0 00-.71-.35c-.88-.25-1.56.28-2.23 1.04z" id="mask34_0_3592" data-name="mask34 0 3592"/></mask><mask id="mask-35" x="14.06" y="27.6" width="75.76" height="61.78" maskUnits="userSpaceOnUse"><path class="cls-3" d="M54.29 28.71c-.84.96-1.49 1.15-2.54.77-1.05-.38-2.74-.9-4.81-.06-2.07.83-4.04 4.06-4.04 4.06s-.96-.16-2.11.07-1.47.97-1.47.97-.32-.2-1.69-.37c-1.37-.17-3.48.94-5.56 1.37-2.07.43-2.29-1.14-2.58-1.71-.29-.57-.58-.58-.84-.32-.26.26-2.63 3.04-4.39 4.07-1.76 1.04-2.85.8-4.09 2.02-1.25 1.22-2.27 4.27-3.09 6.47-.82 2.21-1.92 2.78-2.74 5.11-.82 2.33.32 2.79 1.46 4.44 1.14 1.64 2.34 6.04 3.38 8.97 1.03 2.92 1.73 6.62 3.14 8.37.84 1.05 1.7 1.2 2.73 1.39.69.13 1.44.28 2.31.73 2.16 1.14 4.12 3.89 4.85 5.52.73 1.64 1.33 3.84 2.85 4.53 1.52.7 1.5 1.67 2.91 2.9 1.41 1.23 2.92 1.55 3.56 1.28.64-.27-.08-1.27.21-3.47s5.7-7.75 8.52-9.35c2.81-1.6 4.42 1.01 4.76 2.45.33 1.45.82 2.49 2.03 2.57 1.21.08 1.41-.87 3.32.54 1.91 1.41 5 .83 6.72.05 1.72-.78 1.54-1.98 1.13-2.76-.41-.78.11-1.7.76-2.11.64-.42 1.71-.8 2.11-1.5.4-.7 2.19-2.68 3.02-3.34.83-.66 1.23-.62 1.43-1.35.21-.73.73-2.42 1.05-3.15.32-.73.84-1.49 1.57-1.58.74-.09 1.24-.02 1.54-.54.3-.52.75-2.08 2.4-2.09 1.65-.02 3.19-.81 3.67-2.48.48-1.66-1.52-3.18-2.71-4.23-1.19-1.06-3.85-2.49-5.82-3.32-.93-.39-1.72-.39-2.33-.34-.68.06-1.12.19-1.26-.09-.26-.53.48-.88 1.24-1.33.77-.46 1.81-1.7 1.97-2.44.16-.74-.52-.94-.9-1.68-.38-.75 0-1.72-.31-4.26-.32-2.53-2.23-4.21-4.21-5.53-1.16-.77-2.15-.88-3.16-.99-.72-.08-1.44-.16-2.25-.49-1.94-.78-2.51-2.71-2.92-3.65-.4-.94-.96-2.12-2.1-3.38-.64-.71-1.36-.82-2.09-.92-.56-.08-1.14-.17-1.68-.54a2.59 2.59 0 00-.71-.35c-.88-.25-1.56.28-2.23 1.04z" id="mask35_0_3592" data-name="mask35 0 3592"/></mask><mask id="mask-36" x="14.06" y="27.6" width="71.76" height="61.78" maskUnits="userSpaceOnUse"><path class="cls-3" d="M54.29 28.71c-.84.96-1.49 1.15-2.54.77-1.05-.38-2.74-.9-4.81-.06-2.07.83-4.04 4.06-4.04 4.06s-.96-.16-2.11.07-1.47.97-1.47.97-.32-.2-1.69-.37c-1.37-.17-3.48.94-5.56 1.37-2.07.43-2.29-1.14-2.58-1.71-.29-.57-.58-.58-.84-.32-.26.26-2.63 3.04-4.39 4.07-1.76 1.04-2.85.8-4.09 2.02-1.25 1.22-2.27 4.27-3.09 6.47-.82 2.21-1.92 2.78-2.74 5.11-.82 2.33.32 2.79 1.46 4.44 1.14 1.64 2.34 6.04 3.38 8.97 1.03 2.92 1.73 6.62 3.14 8.37.84 1.05 1.7 1.2 2.73 1.39.69.13 1.44.28 2.31.73 2.16 1.14 4.12 3.89 4.85 5.52.73 1.64 1.33 3.84 2.85 4.53 1.52.7 1.5 1.67 2.91 2.9 1.41 1.23 2.92 1.55 3.56 1.28.64-.27-.08-1.27.21-3.47s5.7-7.75 8.52-9.35c2.81-1.6 4.42 1.01 4.76 2.45.33 1.45.82 2.49 2.03 2.57 1.21.08 1.41-.87 3.32.54 1.91 1.41 5 .83 6.72.05 1.72-.78 1.54-1.98 1.13-2.76-.41-.78.11-1.7.76-2.11.64-.42 1.71-.8 2.11-1.5.4-.7 2.19-2.68 3.02-3.34.83-.66 1.23-.62 1.43-1.35.21-.73.73-2.42 1.05-3.15.32-.73.84-1.49 1.57-1.58.74-.09 1.24-.02 1.54-.54.3-.52.75-2.08 2.4-2.09 1.65-.02 3.19-.81 3.67-2.48.48-1.66-1.52-3.18-2.71-4.23-1.19-1.06-3.85-2.49-5.82-3.32-.93-.39-1.72-.39-2.33-.34-.68.06-1.12.19-1.26-.09-.26-.53.48-.88 1.24-1.33.77-.46 1.81-1.7 1.97-2.44.16-.74-.52-.94-.9-1.68-.38-.75 0-1.72-.31-4.26-.32-2.53-2.23-4.21-4.21-5.53-1.16-.77-2.15-.88-3.16-.99-.72-.08-1.44-.16-2.25-.49-1.94-.78-2.51-2.71-2.92-3.65-.4-.94-.96-2.12-2.1-3.38-.64-.71-1.36-.82-2.09-.92-.56-.08-1.14-.17-1.68-.54a2.59 2.59 0 00-.71-.35c-.88-.25-1.56.28-2.23 1.04z" id="mask36_0_3592" data-name="mask36 0 3592"/></mask><mask id="mask-37" x="14.06" y="27.6" width="71.76" height="62.25" maskUnits="userSpaceOnUse"><path class="cls-3" d="M54.29 28.71c-.84.96-1.49 1.15-2.54.77-1.05-.38-2.74-.9-4.81-.06-2.07.83-4.04 4.06-4.04 4.06s-.96-.16-2.11.07-1.47.97-1.47.97-.32-.2-1.69-.37c-1.37-.17-3.48.94-5.56 1.37-2.07.43-2.29-1.14-2.58-1.71-.29-.57-.58-.58-.84-.32-.26.26-2.63 3.04-4.39 4.07-1.76 1.04-2.85.8-4.09 2.02-1.25 1.22-2.27 4.27-3.09 6.47-.82 2.21-1.92 2.78-2.74 5.11-.82 2.33.32 2.79 1.46 4.44 1.14 1.64 2.34 6.04 3.38 8.97 1.03 2.92 1.73 6.62 3.14 8.37.84 1.05 1.7 1.2 2.73 1.39.69.13 1.44.28 2.31.73 2.16 1.14 4.12 3.89 4.85 5.52.73 1.64 1.33 3.84 2.85 4.53 1.52.7 1.5 1.67 2.91 2.9 1.41 1.23 2.92 1.55 3.56 1.28.64-.27-.08-1.27.21-3.47s5.7-7.75 8.52-9.35c2.81-1.6 4.42 1.01 4.76 2.45.33 1.45.82 2.49 2.03 2.57 1.21.08 1.41-.87 3.32.54 1.91 1.41 5 .83 6.72.05 1.72-.78 1.54-1.98 1.13-2.76-.41-.78.11-1.7.76-2.11.64-.42 1.71-.8 2.11-1.5.4-.7 2.19-2.68 3.02-3.34.83-.66 1.23-.62 1.43-1.35.21-.73.73-2.42 1.05-3.15.32-.73.84-1.49 1.57-1.58.74-.09 1.24-.02 1.54-.54.3-.52.75-2.08 2.4-2.09 1.65-.02 3.19-.81 3.67-2.48.48-1.66-1.52-3.18-2.71-4.23-1.19-1.06-3.85-2.49-5.82-3.32-.93-.39-1.72-.39-2.33-.34-.68.06-1.12.19-1.26-.09-.26-.53.48-.88 1.24-1.33.77-.46 1.81-1.7 1.97-2.44.16-.74-.52-.94-.9-1.68-.38-.75 0-1.72-.31-4.26-.32-2.53-2.23-4.21-4.21-5.53-1.16-.77-2.15-.88-3.16-.99-.72-.08-1.44-.16-2.25-.49-1.94-.78-2.51-2.71-2.92-3.65-.4-.94-.96-2.12-2.1-3.38-.64-.71-1.36-.82-2.09-.92-.56-.08-1.14-.17-1.68-.54a2.59 2.59 0 00-.71-.35c-.88-.25-1.56.28-2.23 1.04z" id="mask37_0_3592" data-name="mask37 0 3592"/></mask><mask id="mask-38" x="14.06" y="27.6" width="71.76" height="61.78" maskUnits="userSpaceOnUse"><path class="cls-3" d="M54.29 28.71c-.84.96-1.49 1.15-2.54.77-1.05-.38-2.74-.9-4.81-.06-2.07.83-4.04 4.06-4.04 4.06s-.96-.16-2.11.07-1.47.97-1.47.97-.32-.2-1.69-.37c-1.37-.17-3.48.94-5.56 1.37-2.07.43-2.29-1.14-2.58-1.71-.29-.57-.58-.58-.84-.32-.26.26-2.63 3.04-4.39 4.07-1.76 1.04-2.85.8-4.09 2.02-1.25 1.22-2.27 4.27-3.09 6.47-.82 2.21-1.92 2.78-2.74 5.11-.82 2.33.32 2.79 1.46 4.44 1.14 1.64 2.34 6.04 3.38 8.97 1.03 2.92 1.73 6.62 3.14 8.37.84 1.05 1.7 1.2 2.73 1.39.69.13 1.44.28 2.31.73 2.16 1.14 4.12 3.89 4.85 5.52.73 1.64 1.33 3.84 2.85 4.53 1.52.7 1.5 1.67 2.91 2.9 1.41 1.23 2.92 1.55 3.56 1.28.64-.27-.08-1.27.21-3.47s5.7-7.75 8.52-9.35c2.81-1.6 4.42 1.01 4.76 2.45.33 1.45.82 2.49 2.03 2.57 1.21.08 1.41-.87 3.32.54 1.91 1.41 5 .83 6.72.05 1.72-.78 1.54-1.98 1.13-2.76-.41-.78.11-1.7.76-2.11.64-.42 1.71-.8 2.11-1.5.4-.7 2.19-2.68 3.02-3.34.83-.66 1.23-.62 1.43-1.35.21-.73.73-2.42 1.05-3.15.32-.73.84-1.49 1.57-1.58.74-.09 1.24-.02 1.54-.54.3-.52.75-2.08 2.4-2.09 1.65-.02 3.19-.81 3.67-2.48.48-1.66-1.52-3.18-2.71-4.23-1.19-1.06-3.85-2.49-5.82-3.32-.93-.39-1.72-.39-2.33-.34-.68.06-1.12.19-1.26-.09-.26-.53.48-.88 1.24-1.33.77-.46 1.81-1.7 1.97-2.44.16-.74-.52-.94-.9-1.68-.38-.75 0-1.72-.31-4.26-.32-2.53-2.23-4.21-4.21-5.53-1.16-.77-2.15-.88-3.16-.99-.72-.08-1.44-.16-2.25-.49-1.94-.78-2.51-2.71-2.92-3.65-.4-.94-.96-2.12-2.1-3.38-.64-.71-1.36-.82-2.09-.92-.56-.08-1.14-.17-1.68-.54a2.59 2.59 0 00-.71-.35c-.88-.25-1.56.28-2.23 1.04z" id="mask38_0_3592" data-name="mask38 0 3592"/></mask><mask id="mask-39" x="14.06" y="27.6" width="71.76" height="61.78" maskUnits="userSpaceOnUse"><path class="cls-3" d="M54.29 28.71c-.84.96-1.49 1.15-2.54.77-1.05-.38-2.74-.9-4.81-.06-2.07.83-4.04 4.06-4.04 4.06s-.96-.16-2.11.07-1.47.97-1.47.97-.32-.2-1.69-.37c-1.37-.17-3.48.94-5.56 1.37-2.07.43-2.29-1.14-2.58-1.71-.29-.57-.58-.58-.84-.32-.26.26-2.63 3.04-4.39 4.07-1.76 1.04-2.85.8-4.09 2.02-1.25 1.22-2.27 4.27-3.09 6.47-.82 2.21-1.92 2.78-2.74 5.11-.82 2.33.32 2.79 1.46 4.44 1.14 1.64 2.34 6.04 3.38 8.97 1.03 2.92 1.73 6.62 3.14 8.37.84 1.05 1.7 1.2 2.73 1.39.69.13 1.44.28 2.31.73 2.16 1.14 4.12 3.89 4.85 5.52.73 1.64 1.33 3.84 2.85 4.53 1.52.7 1.5 1.67 2.91 2.9 1.41 1.23 2.92 1.55 3.56 1.28.64-.27-.08-1.27.21-3.47s5.7-7.75 8.52-9.35c2.81-1.6 4.42 1.01 4.76 2.45.33 1.45.82 2.49 2.03 2.57 1.21.08 1.41-.87 3.32.54 1.91 1.41 5 .83 6.72.05 1.72-.78 1.54-1.98 1.13-2.76-.41-.78.11-1.7.76-2.11.64-.42 1.71-.8 2.11-1.5.4-.7 2.19-2.68 3.02-3.34.83-.66 1.23-.62 1.43-1.35.21-.73.73-2.42 1.05-3.15.32-.73.84-1.49 1.57-1.58.74-.09 1.24-.02 1.54-.54.3-.52.75-2.08 2.4-2.09 1.65-.02 3.19-.81 3.67-2.48.48-1.66-1.52-3.18-2.71-4.23-1.19-1.06-3.85-2.49-5.82-3.32-.93-.39-1.72-.39-2.33-.34-.68.06-1.12.19-1.26-.09-.26-.53.48-.88 1.24-1.33.77-.46 1.81-1.7 1.97-2.44.16-.74-.52-.94-.9-1.68-.38-.75 0-1.72-.31-4.26-.32-2.53-2.23-4.21-4.21-5.53-1.16-.77-2.15-.88-3.16-.99-.72-.08-1.44-.16-2.25-.49-1.94-.78-2.51-2.71-2.92-3.65-.4-.94-.96-2.12-2.1-3.38-.64-.71-1.36-.82-2.09-.92-.56-.08-1.14-.17-1.68-.54a2.59 2.59 0 00-.71-.35c-.88-.25-1.56.28-2.23 1.04z" id="mask39_0_3592" data-name="mask39 0 3592"/></mask><style>.cls-2,.cls-3{fill:#fff}.cls-3,.cls-7,.cls-8{fill-rule:evenodd}.cls-7{fill:#22b573}.cls-8{fill:#006837}.cls-31{fill:none;stroke:#fff;stroke-width:1.18px}</style></defs><g mask="url(#mask)"><path class="cls-7" d="M56.58 76.11c-3.35 11.68-15.5 18.45-27.14 15.11s-18.36-15.51-15.01-27.2c3.35-11.68 15.5-18.45 27.14-15.11s18.36 15.51 15.01 27.2z"/></g><g mask="url(#mask-1)"><path class="cls-31" d="M56.58 76.11c-3.35 11.68-15.5 18.45-27.14 15.11s-18.36-15.51-15.01-27.2c3.35-11.68 15.5-18.45 27.14-15.11s18.36 15.51 15.01 27.2z"/></g><g mask="url(#mask-2)"><path class="cls-8" d="M51.63 85.26c-2.8 9.75-12.94 15.4-22.66 12.61-9.72-2.79-15.32-12.95-12.53-22.7 2.8-9.75 12.94-15.4 22.66-12.61 9.72 2.79 15.33 12.95 12.53 22.7z"/></g><g mask="url(#mask-3)"><path class="cls-31" d="M51.63 85.26c-2.8 9.75-12.94 15.4-22.66 12.61-9.72-2.79-15.32-12.95-12.53-22.7 2.8-9.75 12.94-15.4 22.66-12.61 9.72 2.79 15.33 12.95 12.53 22.7z"/></g><g mask="url(#mask-4)"><path class="cls-7" d="M81.36 85.31c-3.34 11.64-15.45 18.39-27.05 15.06-11.6-3.33-18.3-15.46-14.96-27.11C42.69 61.62 54.8 54.87 66.4 58.2 78 61.53 84.7 73.66 81.36 85.31z"/></g><g mask="url(#mask-5)"><path class="cls-31" d="M81.36 85.31c-3.34 11.64-15.45 18.39-27.05 15.06-11.6-3.33-18.3-15.46-14.96-27.11C42.69 61.62 54.8 54.87 66.4 58.2 78 61.53 84.7 73.66 81.36 85.31z"/></g><g mask="url(#mask-6)"><path class="cls-31" d="M51.63 85.26c-2.8 9.75-12.94 15.4-22.66 12.61-9.72-2.79-15.32-12.95-12.53-22.7 2.8-9.75 12.94-15.4 22.66-12.61 9.72 2.79 15.33 12.95 12.53 22.7z"/></g><g mask="url(#mask-7)"><path class="cls-7" d="M76.79 41.76c-3.99 13.93-18.48 22-32.36 18.02-13.88-3.98-21.89-18.5-17.89-32.43 3.99-13.93 18.48-22 32.36-18.02 13.88 3.98 21.89 18.5 17.89 32.43z"/></g><g mask="url(#mask-8)"><path class="cls-31" d="M76.79 41.76c-3.99 13.93-18.48 22-32.36 18.02-13.88-3.98-21.89-18.5-17.89-32.43 3.99-13.93 18.48-22 32.36-18.02 13.88 3.98 21.89 18.5 17.89 32.43z"/></g><g mask="url(#mask-9)"><path class="cls-8" d="M61.3 55.16c-2.07 7.2-9.56 11.37-16.73 9.32-7.18-2.06-11.32-9.56-9.25-16.77 2.07-7.2 9.56-11.37 16.73-9.32 7.18 2.06 11.32 9.56 9.25 16.77z"/></g><g mask="url(#mask-10)"><path class="cls-31" d="M61.3 55.16c-2.07 7.2-9.56 11.37-16.73 9.32-7.18-2.06-11.32-9.56-9.25-16.77 2.07-7.2 9.56-11.37 16.73-9.32 7.18 2.06 11.32 9.56 9.25 16.77z"/></g><g mask="url(#mask-11)"><path class="cls-7" d="M76.94 47.31c-2.12 7.39-9.8 11.67-17.17 9.56-7.36-2.11-11.61-9.81-9.49-17.2 2.12-7.39 9.8-11.67 17.17-9.56 7.36 2.11 11.61 9.81 9.49 17.2z"/></g><g mask="url(#mask-12)"><path class="cls-31" d="M76.94 47.31c-2.12 7.39-9.8 11.67-17.17 9.56-7.36-2.11-11.61-9.81-9.49-17.2 2.12-7.39 9.8-11.67 17.17-9.56 7.36 2.11 11.61 9.81 9.49 17.2z"/></g><g mask="url(#mask-13)"><path class="cls-8" d="M86.36 28.08c-3.28 11.45-15.19 18.08-26.6 14.81-11.41-3.27-17.99-15.2-14.71-26.65C48.34 4.79 60.25-1.84 71.66 1.43c11.41 3.27 17.99 15.2 14.71 26.65z"/></g><g mask="url(#mask-14)"><path class="cls-31" d="M86.36 28.08c-3.28 11.45-15.19 18.08-26.6 14.81-11.41-3.27-17.99-15.2-14.71-26.65C48.34 4.79 60.25-1.84 71.66 1.43c11.41 3.27 17.99 15.2 14.71 26.65z"/></g><g mask="url(#mask-15)"><path class="cls-7" d="M98.98 63.29c-3.35 11.68-15.5 18.45-27.14 15.11S53.48 62.89 56.83 51.2c3.35-11.68 15.5-18.45 27.14-15.11s18.36 15.51 15.01 27.2z"/></g><g mask="url(#mask-16)"><path class="cls-31" d="M98.98 63.29c-3.35 11.68-15.5 18.45-27.14 15.11S53.48 62.89 56.83 51.2c3.35-11.68 15.5-18.45 27.14-15.11s18.36 15.51 15.01 27.2z"/></g><g mask="url(#mask-17)"><path class="cls-8" d="M76.73 48.14c-2.01 7.02-9.31 11.08-16.31 9.08-6.99-2.01-11.03-9.32-9.02-16.34s9.31-11.08 16.31-9.08c6.99 2.01 11.03 9.32 9.02 16.34z"/></g><g mask="url(#mask-18)"><path class="cls-31" d="M76.73 48.14c-2.01 7.02-9.31 11.08-16.31 9.08-6.99-2.01-11.03-9.32-9.02-16.34s9.31-11.08 16.31-9.08c6.99 2.01 11.03 9.32 9.02 16.34z"/></g><g mask="url(#mask-19)"><path class="cls-8" d="M87.83 64.78c-2.01 7.01-9.3 11.07-16.29 9.07-6.98-2-11.02-9.31-9.01-16.32s9.3-11.07 16.29-9.07c6.98 2 11.02 9.31 9.01 16.32z"/></g><g mask="url(#mask-20)"><path class="cls-31" d="M87.83 64.78c-2.01 7.01-9.3 11.07-16.29 9.07-6.98-2-11.02-9.31-9.01-16.32s9.3-11.07 16.29-9.07c6.98 2 11.02 9.31 9.01 16.32z"/></g><g mask="url(#mask-21)"><path class="cls-7" d="M62.54 57.52l-.09.33c6.24.66 12.25-3.24 14.04-9.5l.09-.33c-6.24-.66-12.25 3.24-14.05 9.5z"/></g><g mask="url(#mask-22)"><path class="cls-31" d="M62.54 57.52l-.09.33c6.24.66 12.25-3.24 14.04-9.5l.09-.33c-6.24-.66-12.25 3.24-14.05 9.5z"/></g><g mask="url(#mask-23)"><path class="cls-7" d="M23.16 30.91c-8.65 3.39-15.3 9.88-19.07 17.78 5.37 2.38 9.74 6.96 11.66 13.01.41 1.3.69 2.62.85 3.93 1.66-.98 3.23-2.08 4.69-3.29-.41-.98-.79-1.98-1.12-3.02-3.13-9.85-1.74-20.07 2.99-28.41z"/></g><g mask="url(#mask-24)"><path class="cls-31" d="M23.16 30.91c-8.65 3.39-15.3 9.88-19.07 17.78 5.37 2.38 9.74 6.96 11.66 13.01.41 1.3.69 2.62.85 3.93 1.66-.98 3.23-2.08 4.69-3.29-.41-.98-.79-1.98-1.12-3.02-3.13-9.85-1.74-20.07 2.99-28.41z"/></g><g mask="url(#mask-25)"><path class="cls-8" d="M30.75 50.12a21.02 21.02 0 01-3.22-6.29c-1.56-4.92-1.25-10 .54-14.45-.93.22-1.86.46-2.78.76-.72.23-1.42.49-2.12.76-4.74 8.34-6.12 18.56-2.99 28.41.33 1.03.71 2.04 1.12 3.02 4.04-3.35 7.25-7.54 9.46-12.21z"/></g><g mask="url(#mask-26)"><path class="cls-31" d="M30.75 50.12a21.02 21.02 0 01-3.22-6.29c-1.56-4.92-1.25-10 .54-14.45-.93.22-1.86.46-2.78.76-.72.23-1.42.49-2.12.76-4.74 8.34-6.12 18.56-2.99 28.41.33 1.03.71 2.04 1.12 3.02 4.04-3.35 7.25-7.54 9.46-12.21z"/></g><g mask="url(#mask-27)"><path class="cls-8" d="M4.09 48.69c-3.16 6.6-4.3 14.17-2.92 21.73 2.77-.2 5.55-.72 8.31-1.61 2.54-.81 4.91-1.9 7.12-3.19a21.91 21.91 0 00-.85-3.93c-1.92-6.05-6.29-10.63-11.66-13.01z"/></g><g mask="url(#mask-28)"><path class="cls-31" d="M4.09 48.69c-3.16 6.6-4.3 14.17-2.92 21.73 2.77-.2 5.55-.72 8.31-1.61 2.54-.81 4.91-1.9 7.12-3.19a21.91 21.91 0 00-.85-3.93c-1.92-6.05-6.29-10.63-11.66-13.01z"/></g><g mask="url(#mask-29)"><path class="cls-7" d="M30.75 50.12a35.6 35.6 0 002.85-21.58c-1.84.13-3.69.41-5.53.85a21.277 21.277 0 00-.54 14.45c.74 2.33 1.84 4.43 3.22 6.29z"/></g><g mask="url(#mask-30)"><path class="cls-31" d="M30.75 50.12a35.6 35.6 0 002.85-21.58c-1.84.13-3.69.41-5.53.85a21.277 21.277 0 00-.54 14.45c.74 2.33 1.84 4.43 3.22 6.29z"/></g><g mask="url(#mask-31)"><path class="cls-31" d="M83.07 72.84c.1-.1.2-.2.3-.31-.15.05-.31.1-.46.15.05.05.11.1.16.16z"/></g><g mask="url(#mask-32)"><path class="cls-7" d="M79.7 67.01a27.88 27.88 0 01-6.49-6.07c-5.68.86-11.08 3.48-15.34 7.68.34.25.69.5 1.04.74.87.58 1.75 1.1 2.66 1.57 5.48-3.88 12.99-4.21 18.88-.26.9.6 1.71 1.28 2.45 2.01.15-.05.31-.1.46-.15.74-.81 1.44-1.66 2.1-2.57-1.99-.74-3.93-1.72-5.77-2.95z"/></g><g mask="url(#mask-33)"><path class="cls-31" d="M79.7 67.01a27.88 27.88 0 01-6.49-6.07c-5.68.86-11.08 3.48-15.34 7.68.34.25.69.5 1.04.74.87.58 1.75 1.1 2.66 1.57 5.48-3.88 12.99-4.21 18.88-.26.9.6 1.71 1.28 2.45 2.01.15-.05.31-.1.46-.15.74-.81 1.44-1.66 2.1-2.57-1.99-.74-3.93-1.72-5.77-2.95z"/></g><g mask="url(#mask-34)"><path class="cls-7" d="M85.47 69.96c.21-.29.43-.59.63-.89 1.25-1.87 2.23-3.83 2.98-5.85a27.596 27.596 0 00-15.86-2.28c1.78 2.3 3.94 4.36 6.49 6.07 1.84 1.24 3.78 2.21 5.77 2.95z"/></g><g mask="url(#mask-35)"><path class="cls-31" d="M85.47 69.96c.21-.29.43-.59.63-.89 1.25-1.87 2.23-3.83 2.98-5.85a27.596 27.596 0 00-15.86-2.28c1.78 2.3 3.94 4.36 6.49 6.07 1.84 1.24 3.78 2.21 5.77 2.95z"/></g><g mask="url(#mask-36)"><path class="cls-7" d="M82.91 72.68c-6.89 2.24-14.58 1.77-21.33-1.75-.9-.47-1.79-.99-2.66-1.57-.35-.24-.7-.49-1.04-.74A28.11 28.11 0 0054.26 73a28.067 28.067 0 00-2.98 5.85c1.24.58 5.95 9.54 7.23 9.93 9.86 2.95 17.31-8.33 24.56-15.94l-.16-.16z"/></g><g mask="url(#mask-37)"><path class="cls-31" d="M82.91 72.68c-6.89 2.24-14.58 1.77-21.33-1.75-.9-.47-1.79-.99-2.66-1.57-.35-.24-.7-.49-1.04-.74A28.11 28.11 0 0054.26 73a28.067 28.067 0 00-2.98 5.85c1.24.58 5.95 9.54 7.23 9.93 9.86 2.95 17.31-8.33 24.56-15.94l-.16-.16z"/></g><g mask="url(#mask-38)"><path class="cls-8" d="M82.91 72.68c-.74-.73-1.56-1.41-2.45-2.01-5.9-3.96-13.4-3.63-18.88.25 6.76 3.52 14.44 3.99 21.33 1.75z"/></g><g mask="url(#mask-39)"><path class="cls-31" d="M82.91 72.68c-.74-.73-1.56-1.41-2.45-2.01-5.9-3.96-13.4-3.63-18.88.25 6.76 3.52 14.44 3.99 21.33 1.75z"/></g><path fill="#22b573" d="M90.45 56.26h37.78v8.32H90.45z"/><path fill="#fff" d="M73.65 22.58l4.47 9.76h-2.25l-.59-1.43h-4.01l-.59 1.43h-2.21l4.47-9.76h.71zm.91 6.6l-1.28-3.07L72 29.18h2.56zM80.31 32.34l.84-5.18 2.55 5.3h.36l2.59-5.3.8 5.18h2.07l-1.71-9.78h-.78l-3.1 6.31-3.11-6.31h-.78l-1.78 9.78h2.05zM94.86 22.58l4.47 9.76h-2.25l-.59-1.43h-4.01l-.59 1.43h-2.21l4.47-9.76h.71zm.91 6.6l-1.28-3.07-1.28 3.07h2.56z"/><path fill="#fff" d="M107.05 32.34v-1.83h-4.52l4.62-7.82H99.7v1.81h4.19l-4.63 7.83h7.79zM117.96 27.52c0 2.82-2.27 5.05-5.08 5.05s-5.07-2.23-5.07-5.05 2.27-5.04 5.07-5.04 5.08 2.22 5.08 5.04zm-8.07 0c0 1.91 1.32 3.22 2.99 3.22s3-1.31 3-3.22-1.31-3.22-3-3.22-2.99 1.31-2.99 3.22zM121.16 32.34v-3.36c0-.78-.01-1.56-.02-2.34l5.75 5.84h.58V22.7h-1.96v3.42c0 .83.01 1.57.02 2.35l-5.82-5.89h-.52v9.76h1.97zM82.14 43.26l.84-5.18 2.55 5.3h.36l2.59-5.3.8 5.18h2.07l-1.71-9.78h-.78l-3.1 6.31-3.11-6.31h-.78l-1.78 9.78h2.05zM94.38 43.26v-9.64h-2.01v9.64h2.01zM97.86 43.26V39.9c0-.78-.01-1.56-.02-2.34l5.75 5.84h.58v-9.78h-1.96v3.42c0 .83.01 1.57.02 2.35l-5.82-5.89h-.52v9.76h1.97zM107.7 43.26v-9.64h-2.01v9.64h2.01zM111.18 43.26V39.9c0-.78-.01-1.56-.02-2.34l5.75 5.84h.58v-9.78h-1.96v3.42c0 .83.01 1.57.02 2.35l-5.82-5.89h-.52v9.76h1.97zM123.97 43.5c1.88 0 3.11-.75 3.59-1.05v-4.36h-3.8v1.68h1.89v1.57c-.47.2-.98.34-1.68.34-1.9 0-3.17-1.33-3.17-3.23s1.23-3.21 3.26-3.21c1.29 0 2.31.42 3.28 1.01v-2.07c-.72-.37-1.75-.77-3.28-.77-3.12 0-5.33 2.22-5.33 5.04s2.21 5.05 5.24 5.05zM88.85 54.31l2.21-5.82 2.19 5.82h.73l3.9-9.77h-2.17l-2.1 5.71-2.19-5.83h-.66l-2.2 5.83-2.1-5.71h-2.21l3.9 9.77h.69zM101.22 44.42l4.47 9.76h-2.25l-.59-1.43h-4.01l-.59 1.43h-2.21l4.47-9.76h.71zm.91 6.6l-1.28-3.07-1.28 3.07h2.56zM108.54 54.18v-7.82h2.56v-1.83h-7.14v1.83h2.56v7.82h2.01zM116.01 54.42c1.39 0 2.38-.43 2.95-.76v-2.08c-.76.55-1.82.99-2.97.99-1.85 0-3.13-1.31-3.13-3.21s1.28-3.21 3.13-3.21c1.14 0 2.21.44 2.97.99v-2.08a6.02 6.02 0 00-2.93-.75c-2.97 0-5.24 2.16-5.24 5.04s2.25 5.05 5.23 5.05zM121.92 54.18v-4h3.92v4h2.01v-9.64h-2.01v3.81h-3.92v-3.81h-2.01v9.64h2.01z"/><path class="cls-3" d="M111.7 63.28c1.23 0 1.84-.66 1.84-1.45 0-.75-.54-1.19-1.07-1.33.25-.1.82-.44.82-1.18s-.59-1.39-1.73-1.39h-1.53v5.36h1.67zm-1.13-4.86h.98c.79 0 1.18.43 1.18.94s-.43.97-1.2.97h-.96v-1.9zm1.12 2.39h-1.12v1.98h1.14c.87 0 1.27-.44 1.27-.98s-.43-1-1.29-1z"/><path class="cls-2" d="M117.67 63.28v-.5h-2.65V60.8h2.15v-.49h-2.15v-1.88h2.56v-.5h-3.11v5.36h3.2zM120.14 63.28v-4.85h1.64v-.51h-3.82v.51h1.63v4.85h.55z"/><path class="cls-3" d="M123.84 57.78l2.57 5.51h-.61l-.55-1.21h-2.83l-.55 1.21h-.6l2.57-5.51zm1.19 3.8l-1.19-2.63-1.19 2.63h2.38z"/></svg>